<?xml version="1.0" encoding="UTF-8"?>
<svg id="Layer_1" data-name="Layer 1" xmlns="http://www.w3.org/2000/svg" viewBox="0 0 576 576">
  <defs>
    <style>
      .cls-1 {
        fill: #f9e69b;
      }

      .cls-1, .cls-2, .cls-3, .cls-4, .cls-5, .cls-6, .cls-7, .cls-8, .cls-9, .cls-10, .cls-11, .cls-12, .cls-13, .cls-14, .cls-15, .cls-16, .cls-17, .cls-18, .cls-19, .cls-20, .cls-21, .cls-22, .cls-23, .cls-24, .cls-25, .cls-26, .cls-27, .cls-28 {
        stroke-width: 0px;
      }

      .cls-2 {
        fill: #fff7da;
      }

      .cls-3 {
        fill: #c7e2f5;
      }

      .cls-4 {
        fill: #fff9e0;
      }

      .cls-5 {
        fill: #f6f6f7;
      }

      .cls-6 {
        fill: #fff5d0;
      }

      .cls-7 {
        fill: #fff9e5;
      }

      .cls-8 {
        fill: #fff2c4;
      }

      .cls-9 {
        fill: #fff3c7;
      }

      .cls-10 {
        fill: #fbedb5;
      }

      .cls-11 {
        fill: #fffefa;
      }

      .cls-12 {
        fill: #fff0ba;
      }

      .cls-13 {
        fill: #fff0b5;
      }

      .cls-14 {
        fill: #fff4cc;
      }

      .cls-15 {
        fill: #fff0b7;
      }

      .cls-16 {
        fill: #fff7d5;
      }

      .cls-17 {
        fill: #ffefb2;
      }

      .cls-18 {
        fill: #fffdf4;
      }

      .cls-19 {
        fill: #fff1bc;
      }

      .cls-20 {
        fill: #fffbea;
      }

      .cls-21 {
        fill: #fff2c1;
      }

      .cls-22 {
        fill: #fff8dc;
      }

      .cls-23 {
        fill: #fff7d7;
      }

      .cls-24 {
        fill: #fff4ca;
      }

      .cls-25 {
        fill: #fff6d3;
      }

      .cls-26 {
        fill: #ffeeae;
      }

      .cls-27 {
        fill: #fffbee;
      }

      .cls-28 {
        fill: #c6e2f5;
      }
    </style>
  </defs>
  <path class="cls-28" d="m169.91,280.97c-.67.88-1.34,1.77-2.01,2.65-1.58,2.08-3.17,4.15-4.73,6.25-.75,1.02-.77,1.07-1.95.63-.79-.29-1.56-.62-2.33-.97-2.47-1.13-4.94-2.23-7.38-3.41-4.3-2.07-8.61-4.14-12.87-6.3-4.63-2.34-9.22-4.78-13.82-7.19-2.94-1.54-5.88-3.08-8.79-4.68-3.77-2.07-7.48-4.24-11.25-6.29-1.83-.99-3.66-1.96-5.76-2.46-2.75-.65-5.13-2.19-7.33-3.98-3.36-2.73-6.22-5.92-8.72-9.44-2.74-3.84-5.36-7.77-7.53-11.97-1.8-3.49-3.71-6.94-5.36-10.5-2.9-6.27-5.6-12.64-7.97-19.14-1.28-3.51-2.79-6.94-4.01-10.46-1.75-5.03-3.36-10.1-4.98-15.17-1.25-3.91-2.45-7.84-3.64-11.78-.86-2.86-1.67-5.73-2.49-8.6-1.22-4.26-2.47-8.51-3.63-12.79-1.37-5.09-2.65-10.2-3.96-15.3-.92-3.57-1.89-7.12-2.73-10.71-1.57-6.67-3.09-13.35-4.58-20.03-1.08-4.82-2.11-9.65-3.11-14.48-.98-4.69-1.86-9.41-2.85-14.1-.8-3.83-1.69-7.64-2.55-11.45-.71-3.18-1.47-6.35-2.14-9.54-.53-2.55-1-5.12-1.41-7.69-.28-1.74-.44-3.51-.6-5.27-.15-1.67-.22-3.35-.33-5.03,0-1.97,0-3.93,0-5.9-.04-1.79.19-3.56.9-5.21.4-.92.89-1.9,1.6-2.58,1.26-1.22,3.52-1.28,5.23-.28.79.47,1.6.65,2.5.78,2.04.3,3.74,1.4,5.41,2.53,4.17,2.83,7.69,6.39,11.13,10.03,2.01,2.13,3.82,4.47,5.7,6.72,1.44,1.72,2.89,3.42,4.27,5.18,1.82,2.31,3.62,4.63,5.35,7.01,3.65,5.02,7.28,10.06,10.85,15.13,1.86,2.63,3.58,5.36,5.37,8.04,1.94,2.91,3.93,5.8,5.82,8.75,3.33,5.19,6.59,10.42,9.88,15.63,1.64,2.61,3.31,5.2,4.91,7.83,2.95,4.82,5.86,9.66,8.79,14.5,1.67,2.76,3.34,5.51,5,8.28,1.49,2.49,2.95,4.98,4.42,7.48,1.61,2.74,3.22,5.47,4.83,8.21,1.61,2.74,3.21,5.48,4.8,8.23,2.37,4.08,4.76,8.15,7.09,12.25,1.64,2.88,3.2,5.82,4.81,8.72,1.27,2.29,2.57,4.56,3.85,6.84,1.22,2.16,2.42,4.32,3.64,6.48,1.86,3.29,3.74,6.58,5.6,9.88.58,1.02,1.15,2.04,1.71,3.06,2.2,4.02,4.4,8.04,6.59,12.06,1.34,2.46,2.64,4.95,3.99,7.41,2.19,3.97,4.42,7.91,6.61,11.88,1.02,1.84,1.98,3.72,2.95,5.58,2.02,3.85,4.03,7.71,6.07,11.56,2.12,4.01,4.28,8,6.42,12,.79,1.49,1.6,2.96,2.37,4.46.45.88.38,1.07-.39,1.64-2.36,1.75-4.75,3.46-7.06,5.27-1.36,1.07-2.59,2.29-3.85,3.47-1.4,1.32-2.76,2.67-4.13,4.01-.27-.16-.62-.26-.79-.49-.56-.74-1.06-1.53-1.57-2.31-1.97-3-3.95-5.99-5.89-9-1.69-2.62-3.32-5.28-5-7.91-.55-.86-1.22-1.66-1.76-2.53-1.58-2.51-3.09-5.08-4.7-7.57-1.56-2.42-3.26-4.76-4.82-7.18-1.74-2.69-3.36-5.45-5.1-8.15-1.29-2-2.72-3.91-4.01-5.91-1.58-2.46-3.07-4.98-4.63-7.45-.42-.67-1-1.24-1.42-1.9-.97-1.53-1.84-3.12-2.83-4.63-1.88-2.89-3.82-5.74-5.71-8.63-1.53-2.33-3.01-4.7-4.52-7.04-1.86-2.9-3.74-5.78-5.6-8.68-1.86-2.9-3.7-5.81-5.57-8.7-2.02-3.12-4.09-6.22-6.1-9.35-2.36-3.68-4.67-7.39-7.03-11.07-1.38-2.15-2.85-4.26-4.24-6.4-1.9-2.93-3.74-5.9-5.64-8.83-1.67-2.58-3.42-5.11-5.1-7.69-1.49-2.3-2.92-4.65-4.4-6.96-.6-.94-1.3-1.83-1.9-2.77-1.55-2.43-3.05-4.89-4.62-7.31-1.04-1.6-2.2-3.13-3.23-4.74-1.42-2.23-2.72-4.53-4.14-6.76-2.15-3.37-4.34-6.72-6.55-10.06-1.77-2.68-3.59-5.32-5.39-7.98-.18-.27-.37-.54-.54-.82-1.07-1.79-2.09-3.61-3.22-5.36-1.39-2.15-2.89-4.22-4.3-6.36-1.23-1.86-2.38-3.77-3.57-5.65-1.22-1.92-2.45-3.83-3.67-5.75-1.38-2.16-2.75-4.32-4.14-6.46-.91-1.41-1.85-2.8-2.8-4.19-.13-.19-.39-.3-.58-.43-.49.45-.19.73.01,1.04,1.34,2.08,2.66,4.17,4,6.25,1.87,2.9,3.77,5.77,5.63,8.68,1.58,2.47,3.11,4.97,4.7,7.43.91,1.41,1.95,2.74,2.85,4.16,1.42,2.23,2.72,4.53,4.15,6.75,1.56,2.42,3.26,4.76,4.82,7.18,1.71,2.65,3.32,5.37,5.03,8.03,1.29,2,2.72,3.91,4.01,5.91,1.58,2.46,3.07,4.97,4.63,7.45.45.71,1.04,1.32,1.49,2.02,1.14,1.8,2.21,3.66,3.37,5.45,1.88,2.89,3.82,5.74,5.71,8.63,1.35,2.06,2.64,4.15,3.97,6.23,1.86,2.9,3.74,5.78,5.6,8.68,1.86,2.9,3.7,5.81,5.57,8.7,2.02,3.12,4.09,6.22,6.1,9.35,2.36,3.68,4.67,7.39,7.03,11.07,1.54,2.39,3.17,4.72,4.72,7.1,2,3.09,3.95,6.21,5.94,9.3,1.44,2.23,2.96,4.41,4.39,6.64,1.69,2.62,3.32,5.28,4.99,7.91.55.86,1.22,1.66,1.77,2.52,1.38,2.16,2.69,4.35,4.08,6.5,1.04,1.61,2.2,3.13,3.22,4.75,1.44,2.27,2.78,4.61,4.22,6.88,1.65,2.59,3.38,5.14,5.07,7.71,1.64,2.49,3.29,4.97,4.94,7.45.77,1.16,1.58,2.29,2.32,3.47,1.3,2.08,2.52,4.22,3.84,6.29,1.2,1.88,2.54,3.67,3.76,5.54,1.22,1.86,2.38,3.77,3.57,5.65,1.22,1.92,2.45,3.83,3.68,5.75,1.31,2.03,2.63,4.06,3.93,6.1.32.51.55,1.07.82,1.6,0,0-.02.02-.02.02-.08.09-.17.18-.25.26,0,0-.03.03-.03.03-.08.08-.17.17-.25.25,0,0-.03.03-.03.03-.08.08-.17.17-.25.25,0,0-.03.03-.03.03-.08.08-.16.17-.25.25Zm-83.27-43.34c.56.2,1.06.42,1.58.57,2.15.61,4.32,1.18,6.47,1.81,3.98,1.17,7.95,2.37,11.94,3.54,3.98,1.17,7.98,2.32,11.96,3.47,2.46.72,4.93,1.44,7.39,2.15,3.27.93,6.56,1.82,9.83,2.78,4.39,1.28,8.76,2.6,13.15,3.9.58.17,1.16.35,1.76.46.22.04.48-.12.72-.18-.15-.24-.24-.6-.46-.7-.55-.26-1.14-.41-1.73-.58-3.94-1.14-7.89-2.26-11.84-3.4-5.33-1.55-10.65-3.11-15.98-4.66-.9-.26-1.81-.45-2.71-.72-2.77-.83-5.52-1.69-8.29-2.51-5.1-1.5-10.22-2.96-15.32-4.44-2.46-.72-4.93-1.44-7.39-2.17-.47-.14-.82-.12-1.08.68Zm42.74-15.88c.07-.09.15-.19.22-.28-.14-.2-.23-.48-.42-.59-.32-.18-.7-.26-1.05-.37-5.62-1.75-11.24-3.5-16.85-5.24-2.23-.69-4.45-1.38-6.69-2.04-2.37-.71-4.75-1.37-7.12-2.09-2.63-.8-5.24-1.66-7.87-2.46-3.88-1.18-7.78-2.32-11.67-3.5-2.95-.89-5.88-1.82-8.82-2.74-.39-.12-.79-.26-.9.25-.03.16.33.52.58.6,2.67.84,5.36,1.63,8.04,2.44,6.02,1.84,12.05,3.68,18.07,5.54,2.23.69,4.43,1.45,6.66,2.13,3.12.95,6.26,1.83,9.39,2.78,2.46.74,4.89,1.56,7.34,2.31,2.98.92,5.97,1.83,8.97,2.73.7.21,1.42.35,2.12.52Zm-74.23-61.71c-.83.53-.42.93.02,1.23.93.63,1.9,1.19,2.84,1.79,2.86,1.83,5.72,3.68,8.59,5.5,2.48,1.57,4.99,3.08,7.45,4.66,2.3,1.48,4.55,3.04,6.84,4.53,1.48.96,3,1.86,4.48,2.81,1.88,1.2,3.74,2.43,5.61,3.64,1.25.8,2.53,1.56,3.78,2.37,2.06,1.34,4.08,2.73,6.14,4.06,2.5,1.61,5.04,3.19,7.56,4.77.18.11.42.15.66.23.43-.85-.23-1.04-.66-1.31-1.45-.93-2.92-1.83-4.36-2.77-.58-.38-1.1-.87-1.69-1.23-2.18-1.35-4.4-2.63-6.57-4-1.57-.99-3.05-2.12-4.61-3.13-2.54-1.64-5.12-3.23-7.68-4.84-.36-.22-.73-.42-1.08-.65-1.79-1.17-3.56-2.37-5.36-3.52-2.18-1.4-4.38-2.77-6.56-4.17-2.07-1.34-4.1-2.74-6.19-4.04-1.38-.85-2.84-1.58-4.13-2.58-.62-.48-1.36-.8-2.02-1.23-1.04-.69-2.07-1.41-3.08-2.1Zm-14.73-36.89c-.28.79.13.96.47,1.22,1.75,1.31,3.48,2.65,5.23,3.97,6.55,4.93,13.1,9.86,19.65,14.79,2.57,1.93,5.12,3.89,7.68,5.82,2.64,1.99,5.28,3.98,7.94,5.95.21.16.72.28.82.16.36-.37.02-.65-.3-.89-.57-.41-1.13-.82-1.69-1.24-5.23-3.98-10.45-7.97-15.68-11.94-2.97-2.25-5.96-4.48-8.94-6.71-4.77-3.57-9.55-7.15-14.33-10.71-.24-.18-.53-.27-.87-.43Zm-4.08-27.03c-.1.1-.2.19-.29.29.08.24.1.56.26.7,1.58,1.31,3.18,2.59,4.79,3.86,1.94,1.54,3.9,3.04,5.82,4.59,3.08,2.49,6.14,5.01,9.21,7.51,1.92,1.56,3.84,3.11,5.78,4.64.25.2.58.28.87.42.31-.64.01-.85-.3-1.1-1.21-.95-2.41-1.91-3.6-2.88-3.58-2.91-7.16-5.83-10.74-8.74-3.44-2.79-6.88-5.58-10.33-8.36-.45-.36-.98-.62-1.48-.93Z"/>
  <path class="cls-28" d="m326.52,309.32c-.52.01-.67-.32-.87-.74-1.65-3.57-3.3-7.13-5.01-10.67-.63-1.3-1.43-2.51-2.24-3.91.95-.7,1.82-1.47,2.8-2.04,4.89-2.85,9.35-6.32,13.95-9.59,2.74-1.95,5.51-3.85,8.29-5.75,7.89-5.41,15.77-10.84,23.69-16.22,8.73-5.93,17.48-11.83,26.26-17.7,4.85-3.25,9.75-6.43,14.65-9.59,5.93-3.82,11.87-7.62,17.86-11.34,7.22-4.48,14.48-8.91,21.76-13.28,3.88-2.33,7.86-4.51,11.79-6.77,3.4-1.96,6.77-3.97,10.18-5.91,2.15-1.23,4.34-2.39,6.53-3.55,4.66-2.49,9.33-4.97,14.01-7.43,2.03-1.06,4.1-2.04,6.13-3.08,2.33-1.19,4.62-2.49,6.99-3.6,3.68-1.73,7.4-3.36,11.12-5.02,2.39-1.07,4.76-2.17,7.19-3.16,3.42-1.39,6.83-2.81,10.33-3.97,4.51-1.5,9.07-2.86,13.67-4.07,3.06-.8,6.22-1.18,9.42-1.08,1.01.03,1.65.49,1.92,1.33.29.92.57,1.93.46,2.86-.17,1.42-.52,2.87-1.07,4.19-1.44,3.46-3.28,6.7-5.27,9.88-2.66,4.24-5.64,8.24-8.6,12.26-1.91,2.59-3.99,5.05-6.03,7.54-2.24,2.74-4.49,5.49-6.8,8.17-2.35,2.72-4.78,5.37-7.16,8.06-1.82,2.06-3.62,4.15-5.43,6.22-.77.88-1.54,1.75-2.33,2.62-1.1,1.21-2.19,2.43-3.32,3.61-2.55,2.67-5.21,5.26-7.67,8.01-3.84,4.29-7.88,8.38-11.93,12.47-2.11,2.13-4.13,4.34-6.22,6.48-4.25,4.36-8.49,8.73-12.77,13.05-5.65,5.69-11.32,11.35-17.01,16.99-3.52,3.49-7.1,6.94-10.66,10.39-1.98,1.92-3.9,3.92-6.02,5.68-1.6,1.33-2.63,2.95-3.61,4.72-1.91,3.43-4.62,6.2-7.86,8.44-2.9,2-5.96,3.67-9.28,4.83-2.91,1.02-5.8,2.1-8.77,2.89-3.28.87-6.63,1.53-9.98,2.11-2.66.45-5.37.59-8.04.94-4.59.59-9.19.91-13.82.82h-15.75c-1.45,0-2.91.05-4.36-.02-2.89-.14-5.77-.35-8.65-.53-1.35-.09-2.7-.2-4.04-.28-1.82-.11-3.63-.19-5.45-.31-.79-.05-1.57-.2-2.36-.27-1.99-.2-3.99-.38-5.98-.57-.58-.06-1.05-.18-1.24-.89-1.01-3.74-2.07-7.46-3.11-11.19-.08-.18-.17-.36-.25-.55,0-.1-.02-.2-.03-.3.37-.45.65-1.06,1.13-1.33,2.1-1.19,4.27-2.28,6.4-3.42.94-.5,1.87-1.02,2.8-1.55,2.5-1.42,4.98-2.86,7.48-4.29,2.31-1.31,4.63-2.61,6.94-3.92.72-.41,1.44-.84,2.15-1.27.91-.55,1.8-1.13,2.73-1.64,2.72-1.51,5.46-2.99,8.18-4.5,1.99-1.11,3.94-2.28,5.93-3.39,2.24-1.25,4.52-2.43,6.76-3.68,1.58-.88,3.1-1.87,4.68-2.76,1.9-1.08,3.84-2.09,5.75-3.15,1.78-.99,3.55-2.01,5.33-3.01,1.67-.94,3.34-1.87,5-2.83,1.4-.82,2.75-1.73,4.16-2.52,1.5-.84,3.09-1.52,4.58-2.37,2.47-1.4,4.88-2.9,7.34-4.31,1.86-1.07,3.75-2.06,5.62-3.11,1.01-.56,1.97-1.2,2.99-1.75,2.55-1.36,5.14-2.64,7.66-4.04,3.14-1.74,6.23-3.56,9.34-5.35.93-.53,1.84-1.09,2.78-1.6,1.22-.68,2.48-1.3,3.69-2,2.38-1.36,4.73-2.78,7.12-4.14,2.63-1.49,5.29-2.92,7.93-4.41,1.5-.85,2.96-1.78,4.46-2.63,1.98-1.12,3.99-2.19,5.98-3.3,2.69-1.48,5.37-2.97,8.05-4.47,1.59-.88,3.17-1.77,4.75-2.66,2.11-1.19,4.22-2.38,6.33-3.56,1.75-.98,3.51-1.95,5.26-2.94,1.63-.92,3.26-1.83,4.88-2.76,2.53-1.46,4.99-3.06,7.63-4.35,1.25-.61,2.38-1.46,3.6-2.14,2.72-1.52,5.47-3,8.2-4.5,1.43-.78,2.85-1.58,4.28-2.36.84-.46,1.77-.79,2.36-1.61-.43-.81-.9-.37-1.31-.13-1.12.66-2.21,1.39-3.35,2.02-2.65,1.46-5.33,2.86-7.98,4.32-1.18.65-2.29,1.44-3.47,2.1-2.96,1.66-5.94,3.27-8.91,4.92-2.16,1.2-4.31,2.43-6.47,3.65-3.37,1.91-6.73,3.81-10.09,5.73-1.66.95-3.28,1.96-4.96,2.88-2.2,1.2-4.45,2.31-6.64,3.52-2.44,1.35-4.85,2.78-7.27,4.18-.76.44-1.5.93-2.27,1.36-2.56,1.43-5.14,2.82-7.69,4.27-1.54.87-3.02,1.86-4.57,2.72-2.03,1.13-4.12,2.16-6.15,3.29-2.94,1.62-5.85,3.29-8.78,4.93-1.42.8-2.85,1.57-4.26,2.39-1.93,1.13-3.83,2.31-5.78,3.43-1.86,1.07-3.75,2.06-5.62,3.11-1.01.56-1.97,1.2-2.99,1.74-2.55,1.36-5.14,2.65-7.66,4.05-2.48,1.38-4.87,2.91-7.34,4.31-2.46,1.4-4.99,2.68-7.45,4.07-3.12,1.75-6.21,3.56-9.32,5.35-.77.44-1.5.93-2.28,1.36-1.79.98-3.61,1.92-5.4,2.91-2.08,1.15-4.14,2.33-6.2,3.52-1.33.76-2.64,1.57-3.98,2.32-1.58.88-3.21,1.69-4.79,2.57-1.62.9-3.22,1.84-4.83,2.75-1.14.64-2.31,1.24-3.44,1.9-1.6.93-3.16,1.93-4.76,2.85-1.77,1.02-3.58,1.98-5.36,2.98-2.6,1.46-5.18,2.93-7.78,4.39-.97.54-1.97,1.04-2.93,1.59-1.17.66-2.3,1.39-3.47,2.04-1.27.7-2.59,1.3-3.84,2.03-.36.21-.57.68-.85,1.03Zm84.05-39.65c1.09,0,1.93.09,2.76-.02,3.32-.41,6.63-.92,9.96-1.33,2.73-.34,5.46-.59,8.19-.88,1.25-.13,2.5-.22,3.75-.38,1.85-.23,3.69-.52,5.53-.73,2.08-.23,4.17-.38,6.26-.61,3.1-.35,6.19-.73,9.29-1.1,1.02-.12,2.04-.22,3.05-.35,1.94-.25,3.87-.52,5.81-.76,1.11-.13,2.23-.2,3.34-.3.39-.03.83-.12.74-.61-.04-.19-.5-.46-.74-.44-1.85.15-3.71.35-5.55.57-2.08.25-4.15.53-6.23.8-1.29.17-2.58.35-3.87.5-1.94.22-3.89.43-5.83.63-1.16.12-2.32.2-3.48.33-3,.35-6.01.71-9.01,1.08-1.2.15-2.39.35-3.59.49-1.94.23-3.89.43-5.83.63-1.16.12-2.32.2-3.48.33-3.05.35-6.1.71-9.14,1.09-.64.08-1.39.06-1.91,1.05Zm29.35,24.9c-.45-.21-.68-.36-.93-.42-2.09-.46-4.17-.93-6.27-1.35-4.92-1-9.86-1.96-14.78-2.96-2.33-.47-4.63-1.05-6.96-1.52-5.06-1.03-10.13-2.03-15.19-3.05-2.74-.55-5.47-1.13-8.2-1.69-.59-.12-1.19-.25-1.79-.27-.21-.01-.44.26-.66.39.16.2.29.43.48.6.08.08.27.03.41.06,5.2,1.04,10.4,2.09,15.6,3.14,9.3,1.88,18.61,3.75,27.91,5.65,2.73.56,5.44,1.19,8.17,1.77.67.14,1.36.32,2.22-.33Zm-30.64,15.71c.12-.2.24-.41.36-.61-.22-.08-.43-.17-.65-.23-.54-.13-1.09-.26-1.64-.34-2.39-.37-4.78-.73-7.17-1.09-2.02-.3-4.05-.59-6.08-.88-2.53-.36-5.06-.7-7.59-1.07-1.93-.28-3.86-.61-5.79-.89-2.9-.42-5.81-.79-8.71-1.22-2.81-.41-5.6-.89-8.41-1.31-3.17-.47-6.35-.91-9.52-1.37-.55-.08-1.1-.24-1.65-.24-.25,0-.51.27-.77.41.17.19.32.52.51.56,1.37.24,2.76.43,4.14.62,1.15.16,2.31.28,3.46.45,2.07.31,4.13.66,6.2.95,2.39.34,4.8.64,7.19.98,2.21.32,4.41.67,6.62,1.01,1.75.26,3.5.51,5.24.79,1.79.28,3.58.61,5.37.87,3.41.49,6.82.95,10.22,1.42,2.07.29,4.14.58,6.22.87.81.11,1.63.22,2.44.32Zm37.45-60.77c.26,0,.48.03.68,0,2.84-.53,5.67-1.06,8.5-1.6,2.24-.43,4.48-.84,6.71-1.3,4.79-.99,9.57-2,14.35-2.99,1.41-.3,2.82-.6,4.24-.88,2.56-.49,5.13-.95,7.68-1.46.24-.05.62-.41.6-.58-.06-.45-.45-.48-.87-.4-1.5.3-3.02.56-4.52.87-2.87.59-5.73,1.24-8.61,1.81-4.7.94-9.4,1.84-14.11,2.76-2.6.51-5.21,1-7.81,1.51-1.92.37-3.84.74-5.75,1.16-.49.11-1.14.21-1.1,1.12Zm34.7-24.27c.41.87,1.05.6,1.52.51,3.79-.76,7.56-1.58,11.34-2.37,3.83-.79,7.66-1.57,11.49-2.36,1.41-.29,2.83-.54,4.24-.87.23-.05.4-.4.6-.61-.27-.12-.53-.27-.81-.36-.11-.03-.26.1-.39.12-2.19.42-4.4.81-6.58,1.26-6.7,1.38-13.4,2.79-20.1,4.19-.43.09-.83.3-1.3.48Z"/>
  <path class="cls-3" d="m291.38,419.62c.15-.31.22-.72.46-.91,2.25-1.77,4.52-3.51,6.81-5.22.39-.29.82-.89,1.44-.31.53.65,1,1.35,1.58,1.95,5.09,5.21,10.21,10.4,15.31,15.61,2.45,2.51,4.85,5.06,7.31,7.57,1.73,1.78,3.51,3.51,5.28,5.26.06.05.17.05.33.1.14-.17.3-.37.44-.53-3.33-3.47-6.59-6.89-9.88-10.28-1.63-1.68-3.31-3.32-4.96-4.97-2.94-2.94-5.97-5.79-8.78-8.85-2.09-2.27-4.19-4.51-6.61-6.44.05-.17.05-.4.16-.51,2.13-2.07,4.27-4.12,6.41-6.18.13-.13.29-.22.44-.34.82.32,1.68.57,2.44.98,2.3,1.24,4.56,2.56,6.86,3.81,1.76.96,3.56,1.86,5.33,2.82,5.13,2.79,10.26,5.59,15.38,8.39,1.35.74,2.71,1.48,4.06,2.22,1.63.89,3.26,1.8,4.91,2.67.23.12.54.09.82.12.05-.11.09-.21.14-.32-.52-.35-1.01-.75-1.55-1.04-1.1-.6-2.26-1.11-3.36-1.72-3.63-2.02-7.23-4.1-10.87-6.11-3.19-1.75-6.42-3.43-9.62-5.15-1.01-.55-1.98-1.18-3.01-1.7-2.07-1.07-4.18-2.06-6.24-3.15-1.3-.68-2.53-1.48-3.79-2.22-.23-.13-.44-.29-.66-.43,2.31-2.92,4.65-5.83,6.92-8.78.55-.72,1.06-.81,1.91-.61,4.15.95,8.18,2.28,12.12,3.88,4.47,1.8,8.8,3.93,12.96,6.36,2.81,1.64,5.51,3.5,8.17,5.4,2.84,2.03,5.56,4.23,8.32,6.36.41.32.7.64.55,1.3-.58,2.4-.9,4.87-1.65,7.21-.89,2.79-1.91,5.59-3.26,8.19-1.7,3.26-3.77,6.3-6.27,9.07-1.99,2.2-4.13,4.18-6.54,5.87-1.79,1.25-3.68,2.38-5.55,3.52-2.89,1.75-6.01,3.03-9.18,4.12-2.59.89-5.28,1.5-7.96,2.14-2.13.51-4.28.9-6.43,1.28-1.14.2-2.31.27-3.47.39-1.62.17-3.24.35-4.85.51-.33.03-.65.05-.98.05-4.03,0-8.06.06-12.09-.02-1.76-.03-3.52-.31-5.27-.54-.42-.06-.94-.27-1.19-.59-.6-.76-1.2-1.56-1.56-2.45-1.11-2.69-1.65-5.54-1.95-8.42-.31-3.01-.42-6.04-.62-9.06,0-4.78.02-9.56.03-14.34,3.16-1.79,6.32-3.59,9.48-5.38.5-.29,1.01-.86,1.49.04.49,1.16.92,2.35,1.47,3.48,1.82,3.79,3.69,7.56,5.53,11.35,2.39,4.93,4.76,9.86,7.16,14.79.21.44.55.82.86,1.27.59-.53.47-.96.19-1.46-.91-1.63-1.84-3.26-2.66-4.93-2.2-4.5-4.34-9.03-6.51-13.54-1.42-2.95-2.84-5.89-4.28-8.83-.45-.92-.98-1.8-1.47-2.7Z"/>
  <path class="cls-3" d="m130.78,361.66c1.08.01,2.16-.03,3.23.05,1.95.13,3.89.33,5.84.5.28.02.56,0,.84.04,2.81.35,5.62.71,8.42,1.06.98,3.4,1.92,6.64,2.87,9.9-1.17.62-2.27.75-3.36.97-1.73.35-3.43.86-5.14,1.28-3.21.77-6.43,1.49-9.64,2.27-6.01,1.45-12.02,2.93-18.03,4.37-1.49.36-3,.62-4.49.98-.66.16-1.3.42-1.91.85.45-.04.9-.03,1.34-.13,4.3-1.01,8.59-2.04,12.89-3.07,5.29-1.26,10.57-2.54,15.86-3.8,2.94-.7,5.88-1.39,8.82-2.07,1.08-.25,2.17-.49,3.25-.74.48-.11.82.04,1.01.5.23.56.47,1.12.7,1.68.86,2.07,1.72,4.14,2.58,6.2-.37.46-.66,1.03-1.12,1.35-1.03.71-2.14,1.3-3.23,1.93-3.07,1.75-5.98,3.76-9.14,5.36-1.61.81-3,2.03-4.55,2.98-2.25,1.38-4.54,2.69-6.82,4.02-2.12,1.25-4.24,2.49-6.35,3.75-1.2.72-2.39,1.45-3.57,2.2-.52.33-1.01.71-1.52,1.07.04.09.08.18.13.28.29,0,.64.11.86-.02,1.46-.81,2.9-1.67,4.33-2.52,2.51-1.5,5.02-3,7.52-4.52,1.9-1.15,3.79-2.32,5.67-3.5.67-.42,1.26-.96,1.93-1.37,2.59-1.56,5.21-3.07,7.81-4.62,2.2-1.31,4.37-2.66,6.58-3.95.71-.42,1.51-.7,2.26-1.04,1.57,2.73,3.13,5.47,4.69,8.21.25.44.44.91.65,1.36-.36.36-.76.69-1.09,1.07-.54.64-1.02,1.33-1.55,1.98-1.18,1.44-2.39,2.86-3.57,4.3-1.36,1.66-2.68,3.34-4.04,5-1.65,2.02-3.33,4.01-4.99,6.02-1.33,1.62-2.63,3.26-3.96,4.88-1,1.22-2.04,2.42-3.04,3.65-.39.48-.15.75.44.87,1.17-1.43,2.34-2.88,3.52-4.31,1.24-1.51,2.49-3.01,3.73-4.52,1.33-1.62,2.64-3.26,3.98-4.87,1.22-1.47,2.5-2.89,3.71-4.37,1.83-2.23,3.61-4.51,5.43-6.74.62-.75,1.31-1.44,1.97-2.15,0,0,.03.03.03.03.09.09.17.17.26.26,0,0,.02.03.02.03.09.09.17.18.26.27,2.02,2.62,3.99,5.28,6.07,7.85,1.2,1.48,2.55,2.86,3.9,4.21.64.64.83,1.29.63,2.14-1.22,4.99-3.12,9.68-6.09,13.9-1.21,1.72-2.65,3.25-4.03,4.83-1.49,1.72-3.25,3.06-5.06,4.37-.66.48-1.37.67-2.21.69-4.03.07-8.02-.24-11.94-1.17-5.73-1.36-10.82-4.06-15.46-7.62-1.99-1.53-3.96-3.13-5.72-4.92-1.99-2.02-3.85-4.2-5.56-6.46-2.95-3.91-5.52-8.07-7.84-12.4-2.02-3.76-3.7-7.65-5.31-11.58-2.01-4.88-3.66-9.88-4.98-15-.27-1.03-.04-1.79.42-2.64,1.14-2.09,2.97-3.44,4.9-4.68,3.31-2.15,7.05-3.12,10.87-3.85,3.31-.63,6.65-.88,10.01-.87,1.68,0,3.37,0,5.05,0Z"/>
  <path class="cls-26" d="m148.23,334.69c.2-2.18.28-4.38.64-6.53.51-2.98,1.16-5.93,1.89-8.87,1.06-4.31,2.51-8.49,4.25-12.58,2.48-5.82,5.51-11.33,9.11-16.53,2.61-3.76,5.45-7.33,8.67-10.59,1.64-1.66,3.24-3.36,4.96-4.94,4.06-3.75,8.42-7.12,13.16-9.97,2.48-1.49,4.97-2.99,7.55-4.3,4.22-2.13,8.57-3.97,13.11-5.28,2.95-.85,5.9-1.74,8.89-2.43,2.07-.48,4.21-.67,6.33-.97,1.93-.27,3.86-.55,5.8-.77.79-.09,1.59-.04,2.39-.08,1.35-.07,2.7-.16,4.05-.24.19-.01.38-.01.56,0,1.58.08,3.17.16,4.75.26.93.06,1.86.16,2.78.26,1.71.19,3.41.39,5.12.58,3.66.41,7.3,1.03,10.82,2.08,3.67,1.09,7.33,2.25,10.9,3.64,5.02,1.96,9.76,4.5,14.32,7.38,3.8,2.4,7.34,5.15,10.8,8,.65.53,1.2,1.19,1.82,1.76.99.92,2.04,1.78,2.99,2.74.86.85,1.59,1.84,2.44,2.69,2.6,2.62,4.91,5.48,7.03,8.49,1.86,2.64,3.68,5.31,5.37,8.07,1.21,1.98,2.21,4.1,3.22,6.19,1.02,2.12,2.09,4.24,2.83,6.46.7,2.1,1.71,4.06,2.16,6.29.42,2.1,1.13,4.18,1.61,6.29.4,1.75.74,3.52,1.08,5.28.22,1.14.42,2.28.6,3.42.19,1.22.44,2.45.49,3.68.15,4.11.39,8.23.23,12.34-.08,2.06.04,4.19-.68,6.24-.31.87-.12,1.91-.2,2.87-.06.67-.15,1.35-.29,2.01-.64,2.99-1.22,6-1.98,8.96-.6,2.33-1.37,4.62-2.19,6.89-.61,1.7-1.41,3.34-2.13,5.01-2.48,5.77-5.5,11.24-9.14,16.35-1.51,2.12-3.15,4.15-4.79,6.17-1.47,1.81-2.94,3.63-4.55,5.31-1.35,1.41-2.89,2.64-4.36,3.93-1.36,1.2-2.69,2.44-4.14,3.54-2.75,2.07-5.47,4.2-8.38,6.02-3.16,1.97-6.48,3.71-9.83,5.36-3.89,1.92-7.91,3.56-12.11,4.68-2.96.79-5.92,1.65-8.91,2.3-2.21.48-4.49.66-6.74.99-.92.14-1.83.33-2.74.51,0-.4.06-.74.57-.79.83-.08,1.67-.16,2.49-.29,1.88-.31,3.77-.54,5.62-.99,3.99-.97,7.94-2.12,11.76-3.62,2.26-.88,4.52-1.78,6.72-2.8,2.23-1.05,4.42-2.21,6.57-3.42,2.19-1.24,4.42-2.47,6.43-3.97,2.73-2.03,5.64-3.85,7.93-6.42.09-.1.21-.18.31-.28,2.01-1.86,4.17-3.59,6-5.61,2.4-2.65,4.75-5.36,6.85-8.3,3-4.19,5.69-8.53,8.02-13.11,1.44-2.84,2.58-5.79,3.7-8.76,1.11-2.93,2.01-5.91,2.75-8.95.47-1.9.88-3.8,1.27-5.72.26-1.27.45-2.56.61-3.85.15-1.25.22-2.5.34-3.76.17-1.8.47-3.61.49-5.41.02-2.85.03-5.69-.18-8.54-.23-3.02-.53-6.03-.94-9.02-.32-2.34-.87-4.66-1.4-6.97-.41-1.77-.92-3.51-1.43-5.25-.29-.98-.62-1.95-1-2.9-.92-2.29-1.8-4.61-2.85-6.84-1.25-2.66-2.6-5.27-4.01-7.84-1.01-1.84-2.16-3.6-3.3-5.36-.91-1.41-1.75-2.9-2.87-4.14-2.49-2.76-4.54-5.92-7.39-8.37-1.37-1.18-2.57-2.55-3.88-3.79-3.12-2.97-6.57-5.52-10.1-7.96-3.3-2.28-6.76-4.33-10.45-5.96-2.56-1.13-5.12-2.26-7.69-3.35-2.96-1.25-6.06-2.13-9.16-2.95-2.02-.53-4.09-.91-6.15-1.28-1.97-.35-3.96-.55-5.92-.91-1.7-.31-3.4-.51-5.13-.52-1.68,0-3.35-.17-5.02-.25-.28-.01-.56.02-.84.04-.79.07-1.57.19-2.36.22-1.26.05-2.54-.05-3.79.08-1.85.18-3.68.49-5.52.78-2.52.39-5.08.67-7.56,1.25-2.9.67-5.77,1.52-8.59,2.47-4.34,1.46-8.55,3.26-12.6,5.39-3.27,1.72-6.5,3.48-9.46,5.71-1.75,1.32-3.52,2.59-5.25,3.93-1.1.86-2.17,1.76-3.2,2.71-2.18,2.03-4.36,4.07-6.47,6.17-.95.95-1.78,2.04-2.6,3.1-2,2.57-4.16,5.04-5.91,7.78-2.89,4.52-5.6,9.15-7.71,14.12-1.68,3.96-3.03,8.01-4.19,12.14-.39,1.39-.83,2.76-1.24,4.15-.19.66-.44,1.31-.52,1.99-.29,2.3-.52,4.6-.81,6.9-.02.15-.33.26-.5.39Z"/>
  <path class="cls-17" d="m148.23,334.69c.17-.13.48-.24.5-.39.29-2.3.51-4.6.81-6.9.09-.67.33-1.33.52-1.99.41-1.38.85-2.76,1.24-4.15,1.16-4.13,2.51-8.18,4.19-12.14,2.11-4.97,4.82-9.6,7.71-14.12,1.75-2.73,3.91-5.21,5.91-7.78.83-1.07,1.65-2.15,2.6-3.1,2.11-2.1,4.28-4.14,6.47-6.17,1.02-.95,2.09-1.86,3.2-2.71,1.73-1.34,3.51-2.61,5.25-3.93,2.96-2.23,6.19-3.99,9.46-5.71,4.06-2.13,8.27-3.93,12.6-5.39,2.82-.95,5.69-1.79,8.59-2.47,2.48-.58,5.04-.86,7.56-1.25,1.84-.28,3.67-.59,5.52-.78,1.25-.12,2.53-.03,3.79-.08.79-.03,1.57-.15,2.36-.22.28-.03.56-.06.84-.04,1.68.08,3.35.24,5.02.25,1.73,0,3.43.21,5.13.52,1.96.36,3.96.56,5.92.91,2.06.37,4.12.75,6.15,1.28,3.11.81,6.2,1.69,9.16,2.95,2.58,1.09,5.13,2.22,7.69,3.35,3.69,1.63,7.15,3.67,10.45,5.96,3.52,2.44,6.98,4.99,10.1,7.96,1.31,1.25,2.51,2.62,3.88,3.79,2.85,2.45,4.9,5.61,7.39,8.37,1.11,1.24,1.96,2.73,2.87,4.14,1.14,1.76,2.29,3.52,3.3,5.36,1.41,2.57,2.77,5.18,4.01,7.84,1.05,2.23,1.93,4.55,2.85,6.84.38.95.71,1.92,1,2.9.51,1.74,1.03,3.48,1.43,5.25.53,2.31,1.08,4.63,1.4,6.97.41,2.99.72,6,.94,9.02.21,2.86.2,5.7.18,8.54-.01,1.81-.32,3.61-.49,5.41-.12,1.25-.18,2.51-.34,3.76-.16,1.29-.35,2.58-.61,3.85-.38,1.91-.8,3.82-1.27,5.72-.74,3.03-1.65,6.02-2.75,8.95-1.12,2.97-2.26,5.92-3.7,8.76-2.33,4.59-5.02,8.93-8.02,13.11-2.1,2.93-4.44,5.64-6.85,8.3-1.83,2.02-3.99,3.75-6,5.61-.1.1-.22.18-.31.28-2.29,2.57-5.2,4.39-7.93,6.42-2.01,1.5-4.24,2.73-6.43,3.97-2.15,1.22-4.33,2.38-6.57,3.42-2.2,1.03-4.46,1.92-6.72,2.8-3.83,1.5-7.77,2.65-11.76,3.62-1.84.45-3.74.69-5.62.99-.82.13-1.66.21-2.49.29-.52.05-.57.39-.57.79-3.97.11-7.94.28-11.91.29-1.85,0-3.71-.28-5.56-.48-1.62-.17-3.23-.39-4.84-.59-3.56-.44-7.05-1.26-10.5-2.2-4.24-1.15-8.37-2.63-12.39-4.4-3.98-1.75-7.86-3.71-11.49-6.11-3.18-2.11-6.35-4.27-9.36-6.61-3.55-2.75-6.79-5.88-9.8-9.2-3.63-4.01-6.98-8.26-9.85-12.86-2.75-4.41-5.15-8.98-7.18-13.77-2.23-5.26-3.88-10.69-5.09-16.26-.59-2.72-.87-5.5-1.32-8.25-.52-3.14-.54-6.31-.58-9.49-.03-2.55.08-5.1.06-7.66,0-.45.17-.91.26-1.37Zm86.74-76.56c-16.47.1-33.35,5.54-48.41,16.37-11.91,8.56-21,19.6-27.39,32.81-5.35,11.06-8.18,22.78-8.38,35.03-.39,24.94,8.25,46.45,25.97,63.95,15.34,15.15,34.12,23.43,55.68,24.52,25.3,1.28,47.35-7.02,65.46-24.72,16.3-15.94,24.98-35.68,25.72-58.45.85-26.1-8.7-48.2-27.39-66.39-16.86-15.03-36.44-23.05-61.27-23.11Z"/>
  <path class="cls-1" d="m196.06,484.88c-.34,1.67-.7,3.33-1.6,4.82-1.73,2.87-4.31,4.63-7.5,5.43-4.83,1.21-9.16.17-12.75-3.33-1.91-1.87-3.14-4.15-3.25-6.92,0-.75,0-1.5,0-2.25.2-4.22,2.48-7.1,5.92-9.26,1.85-1.16,3.92-1.61,6.01-1.65,4.52-.09,8.49,1.3,11.17,5.21,1.11,1.62,1.72,3.47,2.01,5.42,0,.84,0,1.69,0,2.53Z"/>
  <path class="cls-10" d="m309.94,558.87c-4.01-.11-8.18-3.34-8.93-7.76-.51-3.03.11-5.91,2.3-8.2,1.86-1.94,4.17-3.06,6.94-3.21,2.67-.15,5.11.37,7.26,1.99,2.07,1.56,3.39,3.57,3.7,6.18,0,.94,0,1.88,0,2.82.03,1.47-.56,2.73-1.41,3.87-1.9,2.55-4.31,4.21-7.61,4.31-.75,0-1.5,0-2.25,0Z"/>
  <path class="cls-10" d="m380.3,543.67c-3.05-.02-5.54-1.69-6.29-4.39-1.28-4.59,2.12-7.84,5.49-8.01,1.82-.09,3.5.07,5.04,1.18,2.34,1.7,3.18,5.11,1.89,7.62-1.3,2.52-3.37,3.61-6.12,3.6Z"/>
  <path class="cls-1" d="m220.2,514.12c.21-2.14,2.42-3.7,4.33-3.94,1.42-.18,2.76-.04,4.03.68,1.29.73,2.14,1.77,2.36,3.26,0,.84,0,1.68-.01,2.53-.6,1.99-1.85,3.28-3.93,3.67-.94,0-1.88,0-2.82,0-2.04-.44-3.43-1.59-3.94-3.67,0-.84,0-1.69,0-2.53Z"/>
  <path class="cls-3" d="m361.97,325.41h15.75c-.39.09-.78.26-1.17.26-4.47.02-8.93.02-13.4,0-.39,0-.78-.17-1.17-.26Z"/>
  <path class="cls-5" d="m280.12,425.53c0,4.78-.02,9.56-.03,14.34-.08-.39-.24-.79-.24-1.18-.02-4-.02-7.99,0-11.99,0-.39.18-.78.27-1.17Z"/>
  <path class="cls-5" d="m19.1,25.88c0,1.97,0,3.93,0,5.9-.09-.25-.24-.5-.25-.75-.02-1.47-.02-2.93,0-4.4,0-.25.16-.5.25-.75Z"/>
  <path class="cls-5" d="m130.78,361.66c-1.68,0-3.37,0-5.05,0,.2-.09.41-.26.61-.24,1.48.11,2.99-.31,4.45.24Z"/>
  <path class="cls-8" d="m224.15,520.32c.94,0,1.88,0,2.82,0-.94.43-1.88.43-2.82,0Z"/>
  <path class="cls-22" d="m321.2,550.69c0-.94,0-1.88,0-2.82.42.94.42,1.88,0,2.82Z"/>
  <path class="cls-2" d="m196.06,484.88c0-.84,0-1.69,0-2.53.4.84.4,1.69,0,2.53Z"/>
  <path class="cls-14" d="m220.2,514.12c0,.84,0,1.69,0,2.53-.44-.84-.43-1.69,0-2.53Z"/>
  <path class="cls-6" d="m230.9,516.65c0-.84,0-1.68.01-2.53.43.84.45,1.69-.01,2.53Z"/>
  <path class="cls-2" d="m170.96,482.62c0,.75,0,1.5,0,2.25-.38-.75-.37-1.5,0-2.25Z"/>
  <path class="cls-7" d="m309.94,558.87c.75,0,1.5,0,2.25,0-.75.39-1.5.39-2.25,0Z"/>
  <path class="cls-5" d="m326.52,310.79c.08.18.17.36.25.55-.08-.18-.17-.36-.25-.55Z"/>
  <path class="cls-5" d="m162.85,394.57c-.09-.09-.17-.17-.26-.26.09.09.17.17.26.26Z"/>
  <path class="cls-5" d="m163.13,394.86c-.09-.09-.17-.18-.26-.27.09.09.17.18.26.27Z"/>
  <path class="cls-5" d="m170.19,280.69c.08-.08.17-.17.25-.25-.08.08-.17.17-.25.25Z"/>
  <path class="cls-5" d="m169.91,280.97c.08-.08.16-.17.25-.25-.08.08-.16.17-.25.25Z"/>
  <path class="cls-5" d="m170.47,280.41c.08-.08.17-.17.25-.25-.08.08-.17.17-.25.25Z"/>
  <path class="cls-5" d="m170.75,280.13c.08-.09.17-.18.25-.26-.08.09-.17.18-.25.26Z"/>
  <path class="cls-13" d="m234.97,258.13c24.83.06,44.41,8.08,61.27,23.11,18.68,18.19,28.24,40.29,27.39,66.39-.74,22.77-9.43,42.51-25.72,58.45-18.1,17.7-40.16,26-65.46,24.72-21.56-1.09-40.34-9.37-55.68-24.52-17.72-17.5-26.36-39.01-25.97-63.95.19-12.25,3.03-23.97,8.38-35.03,6.39-13.21,15.48-24.24,27.39-32.81,15.06-10.83,31.94-16.27,48.41-16.37Zm-2.64,171.06c26.24.09,45.7-7.2,61.99-22.06,17.46-15.92,26.51-36.06,27.67-59.65.47-9.58-1.06-18.97-3.85-28.12-2.78-9.09-6.98-17.53-12.64-25.15-5.25-7.06-11.47-13.25-18.64-18.4-6.94-4.98-14.5-8.81-22.57-11.6-9.12-3.15-18.56-4.33-28.15-4.57-21.5.89-40.59,7.98-56.45,22.7-17.34,16.1-26.48,36.25-27.16,59.85-.66,23.19,7.12,43.58,23.1,60.46,16.44,17.38,36.91,26,56.7,26.54Z"/>
  <path class="cls-15" d="m232.33,429.19c-19.78-.54-40.26-9.16-56.7-26.54-15.98-16.89-23.76-37.27-23.1-60.46.67-23.59,9.82-43.74,27.16-59.85,15.85-14.72,34.94-21.81,56.45-22.7,9.59.25,19.04,1.43,28.15,4.57,8.07,2.79,15.63,6.62,22.57,11.6,7.17,5.15,13.39,11.33,18.64,18.4,5.67,7.62,9.87,16.07,12.64,25.15,2.79,9.15,4.32,18.54,3.85,28.12-1.16,23.59-10.21,43.73-27.67,59.65-16.3,14.86-35.75,22.15-61.99,22.06Zm-77.64-84.5c-.32,4.36.23,8.67.91,12.96.44,2.8,1.12,5.56,1.81,8.31.86,3.44,2.09,6.77,3.42,10.07,2.16,5.36,4.88,10.43,8.15,15.17,2.99,4.32,6.25,8.47,10.16,12.05,1.21,1.1,2.34,2.29,3.57,3.36,1.37,1.2,2.77,2.35,4.21,3.45,1.81,1.39,3.61,2.81,5.52,4.04,1.88,1.21,3.86,2.26,5.86,3.26,2.96,1.48,5.93,2.95,8.98,4.23,2.23.94,4.56,1.64,6.89,2.31,2.51.72,5.04,1.37,7.6,1.86,2.28.44,4.6.69,6.91.89,2.88.26,5.76.44,8.65.54,1.44.05,2.89-.31,4.32-.22,2.6.17,5.12-.37,7.65-.67,2.76-.32,5.49-.98,8.2-1.66,3.39-.85,6.73-1.87,9.97-3.2,2.11-.86,4.2-1.8,6.23-2.84,2.77-1.43,5.56-2.86,8.19-4.53,2.51-1.6,4.77-3.58,7.25-5.23,1.78-1.18,3.18-2.73,4.7-4.18.2-.19.39-.41.61-.58,2.25-1.65,3.86-3.91,5.69-5.95,1.24-1.38,2.37-2.87,3.46-4.38,1.44-2,2.86-4.02,4.17-6.1,1.09-1.73,2.03-3.57,2.99-5.38.76-1.44,1.58-2.88,2.17-4.39,1.32-3.44,2.56-6.91,3.75-10.4.51-1.49.84-3.05,1.14-4.6.45-2.28.65-4.62,1.25-6.86.56-2.07.49-4.16.67-6.24.17-1.92.26-3.89.07-5.84-.07-.77.04-1.56,0-2.34-.07-1.44-.29-2.88-.27-4.32.03-2.26-.46-4.44-.8-6.64-.26-1.7-.9-3.34-1.13-5.04-.41-3.03-1.43-5.9-2.44-8.74-1.24-3.51-2.73-6.94-4.49-10.24-.95-1.77-1.9-3.54-2.92-5.27-.73-1.24-1.53-2.45-2.38-3.61-1.26-1.73-2.56-3.44-3.9-5.11-1.23-1.52-2.52-3-3.82-4.46-1.02-1.14-2.03-2.3-3.16-3.32-1.69-1.54-3.44-3-5.23-4.42-2.04-1.62-4.11-3.22-6.24-4.72-1.45-1.02-3.04-1.83-4.55-2.75-3.36-2.04-6.91-3.7-10.55-5.16-4.42-1.78-8.96-3.16-13.64-4.08-2.01-.4-4.03-.7-6.05-1-1.1-.16-2.22-.23-3.33-.36-1.34-.15-2.68-.47-4.01-.46-2.89.03-5.79-.24-8.69.22-2.11.33-4.26.36-6.39.61-1.98.24-3.98.46-5.92.93-2.72.65-5.41,1.44-8.07,2.31-2.53.82-5.02,1.77-7.49,2.77-1.65.66-3.24,1.46-4.82,2.27-1.29.66-2.54,1.39-3.77,2.15-2.18,1.35-4.38,2.68-6.49,4.14-1.6,1.11-3.01,2.52-4.62,3.62-2.49,1.7-4.28,4.15-6.66,5.97-.65.5-1.07,1.29-1.66,1.89-2.35,2.42-4.42,5.06-6.37,7.79-.65.91-1.22,1.88-1.8,2.84-1.38,2.27-2.85,4.5-4.09,6.84-1.31,2.48-2.49,5.04-3.53,7.64-1.11,2.77-2.16,5.59-2.91,8.47-.9,3.46-1.62,6.96-2.14,10.52-.51,3.52-.83,7.03-.77,10.59,0,.42,0,.84,0,1.27Z"/>
  <path class="cls-12" d="m154.69,344.69c0-.42,0-.84,0-1.27-.07-3.55.26-7.06.77-10.59.51-3.56,1.24-7.06,2.14-10.52.75-2.88,1.81-5.7,2.91-8.47,1.04-2.6,2.22-5.16,3.53-7.64,1.24-2.35,2.71-4.57,4.09-6.84.58-.96,1.15-1.93,1.8-2.84,1.95-2.73,4.02-5.37,6.37-7.79.58-.6,1.01-1.39,1.66-1.89,2.38-1.82,4.17-4.27,6.66-5.97,1.61-1.1,3.01-2.51,4.62-3.62,2.11-1.46,4.31-2.79,6.49-4.14,1.23-.76,2.49-1.49,3.77-2.15,1.58-.81,3.18-1.6,4.82-2.27,2.47-.99,4.96-1.94,7.49-2.77,2.66-.87,5.35-1.66,8.07-2.31,1.94-.46,3.94-.69,5.92-.93,2.12-.25,4.28-.28,6.39-.61,2.9-.46,5.79-.18,8.69-.22,1.34-.01,2.67.3,4.01.46,1.11.13,2.23.19,3.33.36,2.02.3,4.05.6,6.05,1,4.68.92,9.22,2.31,13.64,4.08,3.64,1.46,7.19,3.13,10.55,5.16,1.52.92,3.11,1.74,4.55,2.75,2.13,1.5,4.2,3.1,6.24,4.72,1.79,1.42,3.54,2.89,5.23,4.42,1.13,1.03,2.14,2.18,3.16,3.32,1.3,1.46,2.59,2.94,3.82,4.46,1.34,1.67,2.64,3.38,3.9,5.11.85,1.17,1.65,2.37,2.38,3.61,1.02,1.73,1.98,3.5,2.92,5.27,1.76,3.3,3.25,6.73,4.49,10.24,1.01,2.84,2.02,5.7,2.44,8.74.23,1.7.87,3.34,1.13,5.04.34,2.2.83,4.39.8,6.64-.02,1.44.2,2.88.27,4.32.04.78-.08,1.57,0,2.34.18,1.95.09,3.91-.07,5.84-.18,2.07-.12,4.17-.67,6.24-.6,2.23-.8,4.58-1.25,6.86-.31,1.55-.64,3.11-1.14,4.6-1.18,3.49-2.42,6.96-3.75,10.4-.58,1.52-1.4,2.95-2.17,4.39-.96,1.81-1.9,3.64-2.99,5.38-1.31,2.09-2.73,4.11-4.17,6.1-1.09,1.51-2.22,3-3.46,4.38-1.83,2.05-3.44,4.31-5.69,5.95-.22.16-.41.39-.61.58-1.52,1.45-2.92,3-4.7,4.18-2.48,1.65-4.74,3.64-7.25,5.23-2.63,1.67-5.41,3.11-8.19,4.53-2.03,1.04-4.12,1.97-6.23,2.84-3.24,1.33-6.58,2.35-9.97,3.2-2.7.68-5.44,1.33-8.2,1.66-2.53.3-5.06.84-7.65.67-1.43-.09-2.88.27-4.32.22-2.88-.1-5.77-.29-8.65-.54-2.31-.21-4.63-.46-6.91-.89-2.56-.49-5.09-1.14-7.6-1.86-2.33-.67-4.66-1.37-6.89-2.31-3.05-1.28-6.02-2.75-8.98-4.23-2-1-3.98-2.05-5.86-3.26-1.92-1.23-3.71-2.65-5.52-4.04-1.44-1.11-2.85-2.26-4.21-3.45-1.23-1.08-2.36-2.26-3.57-3.36-3.91-3.58-7.17-7.73-10.16-12.05-3.27-4.73-5.99-9.8-8.15-15.17-1.33-3.3-2.55-6.62-3.42-10.07-.69-2.75-1.37-5.52-1.81-8.31-.67-4.28-1.22-8.6-.91-12.96Zm1.64-.64c.12,21.85,7.5,40.9,22.67,56.62,15.82,16.39,35.42,24.72,58.16,24.77,21.55.05,40.39-7.6,56-22.46,15.66-14.9,23.97-33.43,24.88-55.01.94-22.52-6.32-42.31-21.74-58.75-15.56-16.59-35.08-25.11-57.76-25.6-17.29-.38-33.22,4.53-47.5,14.5-10.98,7.67-19.69,17.37-25.74,29.31-5.81,11.47-9.05,23.64-8.97,36.61Z"/>
  <path class="cls-19" d="m156.32,344.04c-.08-12.97,3.16-25.14,8.97-36.61,6.05-11.94,14.76-21.64,25.74-29.31,14.27-9.97,30.21-14.88,47.5-14.5,22.69.49,42.2,9.02,57.76,25.6,15.42,16.44,22.69,36.23,21.74,58.75-.9,21.58-9.22,40.11-24.88,55.01-15.61,14.85-34.46,22.51-56,22.46-22.74-.06-42.34-8.39-58.16-24.77-15.18-15.72-22.55-34.77-22.67-56.62Zm3.71.96c0,.37,0,.75,0,1.12-.01,2.75-.07,5.51.54,8.22.26,1.13.45,2.28.56,3.44.27,2.85.98,5.61,1.84,8.3,1.21,3.77,2.53,7.5,4.25,11.11,1.59,3.34,3.26,6.6,5.29,9.68,1.31,1.98,2.72,3.9,4.23,5.73,1.8,2.19,3.73,4.27,5.66,6.35,1.14,1.23,2.39,2.36,3.62,3.5.82.76,1.66,1.51,2.55,2.18,1.66,1.27,3.35,2.52,5.06,3.72,1.34.94,2.67,1.91,4.11,2.68,2.92,1.56,5.86,3.11,8.89,4.43,2.73,1.18,5.58,2.09,8.41,3.04,1.54.52,3.13.91,4.71,1.31,1.35.34,2.7.7,4.07.91,1.84.28,3.69.44,5.55.61,2.18.2,4.36.47,6.54.51,2.28.04,4.57-.14,6.85-.26.97-.05,1.95-.13,2.92-.26,1.2-.16,2.39-.37,3.58-.57,1.92-.32,3.88-.53,5.77-1,2.26-.56,4.44-1.42,6.7-2,3.51-.9,6.73-2.52,9.96-4.07,4.52-2.16,8.69-4.9,12.68-7.93,3.02-2.3,5.7-4.96,8.51-7.48,1.61-1.44,2.88-3.17,4.13-4.92,1.6-2.23,3.43-4.3,4.98-6.57,1.3-1.92,2.27-4.07,3.51-6.04,1.53-2.44,2.55-5.1,3.59-7.75.92-2.34,1.67-4.76,2.41-7.16.49-1.59.88-3.22,1.24-4.85.72-3.23,1.27-6.48,1.44-9.79.14-2.7.42-5.39.51-8.08.05-1.48-.09-2.99-.28-4.46-.41-3.09-.86-6.17-1.4-9.23-.78-4.42-2.06-8.72-3.74-12.88-1.22-3.03-2.54-6.01-4.06-8.92-1.02-1.96-2.28-3.74-3.44-5.58-1.3-2.07-2.78-4.06-4.33-5.99-2.02-2.51-4.37-4.69-6.5-7.09-.42-.48-.93-.89-1.42-1.3-1.11-.93-2.3-1.76-3.33-2.78-2.21-2.19-4.79-3.86-7.38-5.5-1.84-1.17-3.81-2.16-5.75-3.17-1.73-.9-3.48-1.8-5.28-2.53-2.63-1.07-5.3-2.07-8-2.97-2.07-.7-4.19-1.29-6.32-1.76-1.95-.43-3.96-.56-5.92-.94-2.9-.56-5.83-.58-8.76-.76-3.03-.19-6.05.11-9.07.51-2.07.28-4.2.25-6.24.65-2.78.53-5.56,1.17-8.24,2.06-3.62,1.21-7.3,2.29-10.69,4.14-2.62,1.44-5.36,2.66-7.93,4.17-2.13,1.24-4.14,2.7-6.12,4.17-1.6,1.19-3.09,2.54-4.62,3.85-.92.79-1.85,1.58-2.7,2.44-1.05,1.06-2.05,2.17-3.03,3.3-1.41,1.62-2.82,3.23-4.14,4.92-1.85,2.34-3.61,4.75-5.04,7.38-1.39,2.54-2.79,5.07-4.02,7.69-1.03,2.19-1.86,4.48-2.68,6.75-.73,2.01-1.44,4.04-1.94,6.12-.62,2.62-1.1,5.28-1.47,7.95-.38,2.67-.59,5.36-.8,8.05-.1,1.21-.02,2.44-.02,3.65Z"/>
  <path class="cls-21" d="m160.03,345c0-1.22-.08-2.44.02-3.65.21-2.69.42-5.38.8-8.05.38-2.67.85-5.33,1.47-7.95.49-2.08,1.21-4.1,1.94-6.12.82-2.28,1.66-4.56,2.68-6.75,1.23-2.62,2.64-5.15,4.02-7.69,1.43-2.62,3.2-5.04,5.04-7.38,1.33-1.68,2.74-3.3,4.14-4.92.98-1.13,1.98-2.24,3.03-3.3.85-.86,1.78-1.65,2.7-2.44,1.52-1.3,3.01-2.65,4.62-3.85,1.98-1.47,3.99-2.93,6.12-4.17,2.58-1.51,5.31-2.73,7.93-4.17,3.38-1.86,7.07-2.93,10.69-4.14,2.68-.9,5.46-1.53,8.24-2.06,2.05-.39,4.17-.37,6.24-.65,3.01-.4,6.04-.7,9.07-.51,2.92.18,5.86.2,8.76.76,1.96.38,3.97.51,5.92.94,2.13.47,4.25,1.07,6.32,1.76,2.69.91,5.36,1.9,8,2.97,1.81.74,3.55,1.63,5.28,2.53,1.94,1.01,3.91,2,5.75,3.17,2.59,1.64,5.17,3.32,7.38,5.5,1.02,1.01,2.22,1.85,3.33,2.78.49.41,1,.82,1.42,1.3,2.12,2.4,4.48,4.58,6.5,7.09,1.55,1.93,3.02,3.92,4.33,5.99,1.16,1.84,2.42,3.63,3.44,5.58,1.52,2.91,2.84,5.9,4.06,8.92,1.68,4.16,2.96,8.45,3.74,12.88.54,3.07.99,6.15,1.4,9.23.2,1.47.33,2.98.28,4.46-.09,2.7-.37,5.39-.51,8.08-.17,3.31-.72,6.56-1.44,9.79-.36,1.63-.75,3.26-1.24,4.85-.74,2.41-1.49,4.82-2.41,7.16-1.04,2.65-2.06,5.31-3.59,7.75-1.24,1.97-2.2,4.12-3.51,6.04-1.54,2.27-3.37,4.34-4.98,6.57-1.26,1.75-2.52,3.48-4.13,4.92-2.81,2.52-5.49,5.18-8.51,7.48-3.99,3.04-8.16,5.78-12.68,7.93-3.24,1.54-6.45,3.16-9.96,4.07-2.25.58-4.44,1.44-6.7,2-1.89.47-3.84.68-5.77,1-1.19.2-2.38.41-3.58.57-.97.13-1.94.21-2.92.26-2.28.11-4.57.3-6.85.26-2.18-.04-4.36-.31-6.54-.51-1.85-.17-3.71-.33-5.55-.61-1.37-.21-2.72-.57-4.07-.91-1.58-.4-3.17-.79-4.71-1.31-2.82-.95-5.68-1.86-8.41-3.04-3.03-1.32-5.97-2.87-8.89-4.43-1.44-.77-2.77-1.74-4.11-2.68-1.71-1.21-3.4-2.45-5.06-3.72-.89-.68-1.73-1.42-2.55-2.18-1.23-1.14-2.48-2.27-3.62-3.5-1.93-2.07-3.86-4.16-5.66-6.35-1.51-1.83-2.92-3.75-4.23-5.73-2.03-3.07-3.7-6.34-5.29-9.68-1.72-3.61-3.04-7.33-4.25-11.11-.87-2.7-1.57-5.46-1.84-8.3-.11-1.15-.31-2.31-.56-3.44-.61-2.72-.55-5.47-.54-8.22,0-.37,0-.75,0-1.12Zm77.93,72.65c3.95.34,7.82-.36,11.7-.9,3.47-.49,6.81-1.56,10.14-2.6,4.16-1.29,8.13-3,11.98-5.07,2.6-1.4,5.15-2.86,7.51-4.6,3.53-2.59,7.09-5.14,9.98-8.49,1.74-2.01,3.64-3.89,5.32-5.95,1.65-2.02,3.23-4.11,4.61-6.31,1.73-2.76,3.23-5.65,4.59-8.62,1.74-3.79,3.17-7.67,4.16-11.71.09-.36.26-.7.36-1.06.18-.62.37-1.25.48-1.89.32-2.02.59-4.05.9-6.07.43-2.81.81-5.62.8-8.47,0-2.06,0-4.12,0-6.19,0-.37,0-.75-.05-1.12-.25-1.61-.49-3.21-.79-4.81-.49-2.7-.87-5.43-1.57-8.08-1.3-4.88-3.12-9.56-5.41-14.09-1.92-3.81-4.24-7.35-6.7-10.81-1.79-2.52-3.73-4.9-5.97-7.04-1.46-1.39-2.83-2.87-4.29-4.26-.88-.84-1.78-1.66-2.77-2.35-2.4-1.69-4.84-3.33-7.29-4.94-2.65-1.74-5.42-3.27-8.37-4.47-1.69-.68-3.34-1.46-5.05-2.08-2.06-.74-4.14-1.46-6.25-2-2.52-.64-5.08-1.15-7.65-1.56-2.11-.34-4.2-.84-6.37-.74-1.68.07-3.41.23-5.05-.05-1.9-.33-3.72.07-5.56.15-2.4.11-4.79.59-7.16,1.05-2.74.53-5.51,1.03-8.16,1.86-3.02.95-5.94,2.22-8.88,3.42-1.73.71-3.48,1.4-5.08,2.35-3.64,2.17-7.24,4.38-10.56,7.08-2.33,1.89-4.47,3.97-6.69,5.96-1.27,1.14-2.29,2.58-3.39,3.9-1.19,1.43-2.44,2.83-3.52,4.34-2.98,4.2-5.71,8.55-7.66,13.35-.91,2.24-1.89,4.47-2.66,6.76-.68,2.02-1.11,4.13-1.67,6.2-.47,1.75-.71,3.55-1.04,5.33-.53,2.85-.81,5.72-.88,8.6-.06,2.61-.1,5.22.18,7.84.22,2.03.21,4.08.61,6.11.62,3.15,1.02,6.34,2.1,9.39.59,1.66.99,3.4,1.62,5.04.85,2.21,1.7,4.45,2.81,6.53,1.44,2.71,2.71,5.53,4.62,7.98.97,1.24,1.69,2.68,2.65,3.92,1.39,1.8,2.83,3.57,4.38,5.23,2.04,2.19,4.22,4.25,6.34,6.36.13.13.29.24.44.35,1.65,1.21,3.29,2.44,4.95,3.63,1.56,1.11,3.05,2.36,4.74,3.24,2.31,1.2,4.47,2.68,6.94,3.59,2.23.82,4.34,1.94,6.57,2.76,3.73,1.36,7.6,2.18,11.5,2.94,3.54.69,7.11.88,10.69,1.03.94.04,1.87,0,2.81,0Z"/>
  <path class="cls-8" d="m237.96,417.66c-.94,0-1.88.04-2.81,0-3.58-.16-7.15-.34-10.69-1.03-3.9-.76-7.77-1.58-11.5-2.94-2.23-.81-4.34-1.94-6.57-2.76-2.48-.91-4.63-2.39-6.94-3.59-1.69-.87-3.18-2.12-4.74-3.24-1.66-1.19-3.3-2.42-4.95-3.63-.15-.11-.31-.22-.44-.35-2.12-2.11-4.29-4.18-6.34-6.36-1.55-1.66-2.99-3.43-4.38-5.23-.96-1.25-1.68-2.68-2.65-3.92-1.92-2.45-3.18-5.27-4.62-7.98-1.11-2.09-1.96-4.32-2.81-6.53-.63-1.65-1.03-3.38-1.62-5.04-1.08-3.05-1.48-6.24-2.1-9.39-.4-2.02-.39-4.08-.61-6.11-.28-2.62-.24-5.24-.18-7.84.07-2.88.34-5.75.88-8.6.33-1.78.57-3.57,1.04-5.33.55-2.07.99-4.17,1.67-6.2.77-2.29,1.75-4.52,2.66-6.76,1.95-4.79,4.68-9.15,7.66-13.35,1.08-1.52,2.33-2.91,3.52-4.34,1.11-1.32,2.12-2.76,3.39-3.9,2.22-1.99,4.36-4.07,6.69-5.96,3.31-2.69,6.92-4.91,10.56-7.08,1.59-.95,3.35-1.65,5.08-2.35,2.94-1.2,5.86-2.47,8.88-3.42,2.65-.83,5.42-1.33,8.16-1.86,2.37-.46,4.76-.94,7.16-1.05,1.84-.08,3.66-.48,5.56-.15,1.64.28,3.37.12,5.05.05,2.17-.1,4.26.41,6.37.74,2.57.41,5.13.92,7.65,1.56,2.12.54,4.2,1.26,6.25,2,1.71.62,3.36,1.39,5.05,2.08,2.95,1.19,5.71,2.73,8.37,4.47,2.46,1.61,4.89,3.25,7.29,4.94.99.7,1.9,1.52,2.77,2.35,1.46,1.39,2.83,2.87,4.29,4.26,2.24,2.14,4.18,4.52,5.97,7.04,2.47,3.46,4.78,6.99,6.7,10.81,2.28,4.53,4.11,9.21,5.41,14.09.7,2.64,1.08,5.38,1.57,8.08.29,1.6.54,3.21.79,4.81.06.37.05.75.05,1.12,0,2.06,0,4.12,0,6.19.01,2.85-.36,5.66-.8,8.47-.31,2.02-.58,4.05-.9,6.07-.1.64-.3,1.26-.48,1.89-.1.36-.27.7-.36,1.06-.99,4.05-2.42,7.92-4.16,11.71-1.36,2.97-2.86,5.86-4.59,8.62-1.38,2.2-2.97,4.3-4.61,6.31-1.68,2.06-3.59,3.93-5.32,5.95-2.89,3.35-6.46,5.91-9.98,8.49-2.37,1.74-4.91,3.2-7.51,4.6-3.85,2.07-7.82,3.78-11.98,5.07-3.34,1.04-6.68,2.11-10.14,2.6-3.87.55-7.75,1.24-11.7.9Zm70.33-71.62c-.03-12.67-2.45-23.31-7.53-33.29-3.16-6.21-7.09-11.9-11.88-17.02-7.66-8.18-16.87-13.97-27.26-17.92-8-3.04-16.38-4.56-24.9-4.37-20.78.47-38.43,8.3-52.46,23.72-11.81,12.99-17.33,28.6-18.22,45.99.24,12.61,2.84,24.59,9.02,35.75,6.21,11.22,14.86,19.99,25.72,26.61,10.86,6.62,22.78,9.95,35.44,10.09,7.83.09,15.59-1,23.1-3.52,8.97-3.01,17.04-7.63,24.27-13.66,4.38-3.65,8.27-7.88,11.53-12.58,4.94-7.14,8.71-14.87,10.84-23.33,1.48-5.89,2.58-11.84,2.34-16.48Z"/>
  <path class="cls-9" d="m308.3,346.04c.24,4.65-.87,10.6-2.34,16.48-2.12,8.46-5.89,16.19-10.84,23.33-3.26,4.7-7.15,8.92-11.53,12.58-7.23,6.03-15.29,10.65-24.27,13.66-7.51,2.52-15.28,3.61-23.1,3.52-12.66-.15-24.58-3.47-35.44-10.09-10.86-6.62-19.51-15.4-25.72-26.61-6.18-11.16-8.78-23.13-9.02-35.75.89-17.38,6.41-32.99,18.22-45.99,14.03-15.43,31.68-23.25,52.46-23.72,8.52-.19,16.91,1.32,24.9,4.37,10.39,3.95,19.6,9.74,27.26,17.92,4.79,5.12,8.72,10.81,11.88,17.02,5.08,9.98,7.5,20.62,7.53,33.29Zm-2.12-5.74c-.46-3.22-.74-6.48-1.43-9.65-.7-3.23-1.74-6.39-2.76-9.54-1.01-3.11-2.32-6.1-3.96-8.94-1.63-2.83-3.29-5.64-5.27-8.25-1.98-2.6-4.02-5.13-6.28-7.51-2.29-2.41-4.8-4.53-7.44-6.54-2.6-1.98-5.27-3.85-8.16-5.38-2.88-1.53-5.83-2.91-8.85-4.17-3.03-1.26-6.2-2.03-9.33-2.9-3.19-.88-6.49-1.15-9.77-1.56-3.25-.41-6.52-.39-9.73-.16-8.12.58-16.05,2.34-23.52,5.66-6.64,2.95-12.82,6.75-18.2,11.66-8.43,7.69-14.92,16.78-18.91,27.56-2.96,8-4.16,16.32-4.33,24.79-.06,2.81.52,5.64.78,8.46.26,2.84.89,5.61,1.66,8.34.77,2.73,1.63,5.45,2.69,8.07,1.04,2.58,2.25,5.11,3.6,7.54,1.37,2.48,2.95,4.86,4.53,7.21,1.59,2.35,3.74,4.27,5.42,6.52,1.76,2.35,4.14,3.9,6.2,5.83,2.05,1.93,4.45,3.54,6.83,5.07,2.39,1.54,4.9,2.93,7.46,4.16,2.52,1.21,5.19,2.09,7.77,3.19,2.64,1.13,5.47,1.52,8.23,2.21,2.75.69,5.57,1.08,8.42,1.18,2.82.1,5.66.42,8.47.24,19.98-1.32,36.6-9.52,49.83-24.58,11.16-14.24,16.9-30.26,16.05-48.51Z"/>
  <path class="cls-24" d="m306.18,340.3c.85,18.26-4.89,34.27-16.05,48.51-13.22,15.05-29.85,23.26-49.83,24.58-2.81.18-5.65-.14-8.47-.24-2.85-.1-5.66-.5-8.42-1.18-2.75-.69-5.58-1.08-8.23-2.21-2.58-1.1-5.25-1.98-7.77-3.19-2.56-1.23-5.07-2.62-7.46-4.16-2.38-1.53-4.78-3.14-6.83-5.07-2.06-1.94-4.44-3.48-6.2-5.83-1.68-2.25-3.84-4.17-5.42-6.52-1.59-2.35-3.16-4.73-4.53-7.21-1.35-2.43-2.56-4.96-3.6-7.54-1.06-2.63-1.92-5.35-2.69-8.07-.77-2.73-1.4-5.5-1.66-8.34-.26-2.82-.84-5.65-.78-8.46.17-8.47,1.37-16.79,4.33-24.79,3.99-10.77,10.47-19.87,18.91-27.56,5.38-4.9,11.56-8.71,18.2-11.66,7.47-3.32,15.4-5.08,23.52-5.66,3.21-.23,6.48-.25,9.73.16,3.28.41,6.58.68,9.77,1.56,3.14.87,6.3,1.64,9.33,2.9,3.02,1.26,5.97,2.65,8.85,4.17,2.89,1.53,5.56,3.4,8.16,5.38,2.64,2,5.15,4.12,7.44,6.54,2.25,2.38,4.3,4.91,6.28,7.51,1.99,2.61,3.64,5.42,5.27,8.25,1.64,2.84,2.95,5.83,3.96,8.94,1.02,3.15,2.06,6.31,2.76,9.54.69,3.17.97,6.43,1.43,9.65Zm-70.1,69.91c2.49-.17,4.45-.26,6.39-.44,2.31-.22,4.64-.4,6.92-.8,4.09-.71,8.05-1.96,11.92-3.45,2.93-1.13,5.8-2.4,8.46-4.07,2.88-1.8,5.72-3.65,8.4-5.77,2.06-1.63,3.88-3.5,5.87-5.19.92-.78,1.67-1.76,2.44-2.69,1.62-1.98,3.34-3.9,4.77-6.02,1.65-2.43,3.1-5,4.49-7.59.99-1.84,1.86-3.77,2.58-5.73.9-2.49,1.55-5.07,2.37-7.59.7-2.14,1.16-4.31,1.36-6.55.19-2.08.76-4.13.6-6.25-.01-.13.09-.27.1-.41.05-.79.18-1.59.12-2.37-.1-1.27-.27-2.53.01-3.8.06-.26.01-.56-.02-.84-.17-1.38-.33-2.77-.52-4.15-.3-2.07-.4-4.2-.99-6.19-1.16-3.97-2.03-8.04-3.95-11.77-1.86-3.6-3.28-7.43-5.79-10.68-1.05-1.36-1.91-2.88-3.02-4.19-1.87-2.2-3.85-4.32-5.85-6.42-.92-.97-1.98-1.81-3-2.68-.85-.72-1.74-1.4-2.6-2.11-.29-.24-.53-.54-.84-.74-2.65-1.72-5.33-3.4-8.09-4.97-2.95-1.68-6.1-2.84-9.23-4.05-2.12-.82-4.34-1.41-6.55-1.99-3.47-.91-7.03-1.51-10.59-1.67-4.5-.2-9.02-.22-13.5.5-3.39.55-6.77,1.14-10.07,2.18-3.48,1.1-6.85,2.42-10.11,4.02-4.12,2.02-7.91,4.55-11.55,7.34-2.19,1.68-4.22,3.52-6.17,5.45-1.36,1.34-2.57,2.83-3.77,4.32-1.41,1.74-2.87,3.45-4.07,5.33-1.73,2.71-3.48,5.43-4.69,8.44-1.06,2.64-2.35,5.21-3.16,7.92-1.03,3.42-2.13,6.85-2.37,10.46-.07,1.02-.21,2.04-.31,3.05-.17,1.71-.42,3.42-.5,5.13-.18,3.88.33,7.73.87,11.55.34,2.39.91,4.75,1.46,7.1.71,3.05,1.87,5.97,3.16,8.81,1.09,2.42,2.31,4.8,3.66,7.09,1.35,2.28,2.87,4.47,4.45,6.6,1.35,1.83,2.83,3.58,4.37,5.27,1.03,1.14,2.23,2.13,3.39,3.14,1.9,1.64,3.78,3.33,5.78,4.84,2.95,2.21,6.12,4.09,9.42,5.74,3.61,1.8,7.37,3.17,11.22,4.33,1.29.39,2.6.76,3.92.98,2.06.36,4.14.61,6.21.86,2.35.28,4.72.51,6.57.7Z"/>
  <path class="cls-14" d="m236.08,410.21c-1.85-.2-4.22-.42-6.57-.7-2.08-.25-4.15-.5-6.21-.86-1.33-.23-2.63-.6-3.92-.98-3.85-1.16-7.62-2.54-11.22-4.33-3.31-1.65-6.47-3.53-9.42-5.74-2.01-1.5-3.88-3.19-5.78-4.84-1.17-1.01-2.36-2-3.39-3.14-1.53-1.69-3.01-3.44-4.37-5.27-1.58-2.13-3.1-4.32-4.45-6.6-1.35-2.28-2.57-4.67-3.66-7.09-1.29-2.85-2.44-5.76-3.16-8.81-.55-2.35-1.12-4.71-1.46-7.1-.55-3.83-1.05-7.67-.87-11.55.08-1.71.33-3.42.5-5.13.1-1.02.24-2.03.31-3.05.24-3.61,1.34-7.04,2.37-10.46.81-2.71,2.1-5.28,3.16-7.92,1.21-3.01,2.96-5.73,4.69-8.44,1.2-1.88,2.66-3.59,4.07-5.33,1.2-1.48,2.42-2.98,3.77-4.32,1.95-1.93,3.98-3.77,6.17-5.45,3.64-2.8,7.43-5.33,11.55-7.34,3.26-1.6,6.64-2.92,10.11-4.02,3.3-1.04,6.68-1.63,10.07-2.18,4.48-.72,9-.69,13.5-.5,3.57.16,7.12.76,10.59,1.67,2.21.58,4.42,1.17,6.55,1.99,3.13,1.21,6.28,2.37,9.23,4.05,2.76,1.57,5.43,3.24,8.09,4.97.31.2.55.5.84.74.86.71,1.75,1.39,2.6,2.11,1.02.87,2.08,1.71,3,2.68,2,2.09,3.97,4.21,5.85,6.42,1.11,1.31,1.97,2.83,3.02,4.19,2.51,3.25,3.93,7.08,5.79,10.68,1.92,3.73,2.79,7.8,3.95,11.77.58,1.99.69,4.12.99,6.19.2,1.38.36,2.76.52,4.15.03.28.08.57.02.84-.29,1.27-.11,2.53-.01,3.8.06.78-.07,1.58-.12,2.37,0,.14-.11.27-.1.41.16,2.12-.41,4.17-.6,6.25-.2,2.23-.66,4.41-1.36,6.55-.82,2.52-1.47,5.1-2.37,7.59-.71,1.97-1.58,3.89-2.58,5.73-1.39,2.59-2.85,5.16-4.49,7.59-1.43,2.11-3.15,4.04-4.77,6.02-.77.94-1.52,1.92-2.44,2.69-1.99,1.69-3.81,3.56-5.87,5.19-2.68,2.12-5.52,3.97-8.4,5.77-2.66,1.67-5.53,2.94-8.46,4.07-3.88,1.49-7.83,2.74-11.92,3.45-2.28.4-4.61.58-6.92.8-1.95.18-3.91.27-6.39.44Zm1.22-128.99c-4.86-.23-9.58.61-14.28,1.65-4.66,1.04-9.09,2.63-13.38,4.75-4.33,2.14-8.4,4.6-12.18,7.63-3.76,3.02-7.11,6.41-10.03,10.23-2.93,3.82-5.47,7.88-7.51,12.28-2.01,4.35-3.55,8.81-4.67,13.46-1.12,4.69-1.51,9.47-1.38,14.22.45,16.23,5.95,30.6,17.19,42.42,12.67,13.33,28.44,19.99,46.8,20.06,7.13.03,14.16-1.34,20.91-3.82,5.96-2.18,11.46-5.21,16.59-8.95,5.07-3.69,9.3-8.23,12.98-13.24,4.31-5.87,7.53-12.32,9.64-19.33,1.91-6.34,2.82-12.85,2.59-19.38-.62-18.06-7.47-33.55-20.9-45.7-11.94-10.81-26.23-16.15-42.38-16.28Z"/>
  <path class="cls-6" d="m237.3,281.22c16.15.14,30.44,5.48,42.38,16.28,13.43,12.15,20.27,27.64,20.9,45.7.23,6.53-.69,13.04-2.59,19.38-2.11,7.01-5.33,13.47-9.64,19.33-3.68,5.01-7.91,9.54-12.98,13.24-5.13,3.74-10.63,6.77-16.59,8.95-6.75,2.47-13.79,3.84-20.91,3.82-18.36-.07-34.13-6.73-46.8-20.06-11.24-11.82-16.73-26.19-17.19-42.42-.13-4.75.26-9.53,1.38-14.22,1.11-4.65,2.65-9.11,4.67-13.46,2.04-4.4,4.58-8.46,7.51-12.28,2.92-3.81,6.27-7.2,10.03-10.23,3.77-3.03,7.84-5.5,12.18-7.63,4.29-2.12,8.72-3.71,13.38-4.75,4.7-1.05,9.42-1.88,14.28-1.65Zm59.96,65.91c.06-10.5-1.57-19.19-5.26-27.34-3.37-7.44-8.07-14.09-14.19-19.57-6.78-6.08-14.54-10.51-23.26-13.19-6.75-2.07-13.72-2.45-20.71-2.65-10.03,1.05-19.47,3.78-28.14,9.13-8.66,5.34-15.37,12.44-20.47,21.19-5.14,8.82-7.79,18.36-7.99,28.5-.24,11.57,2.63,22.42,8.61,32.37,5.92,9.85,14.13,17.25,24.3,22.53,8.66,4.5,17.96,6.68,27.61,6.47,15.96-.34,30-5.96,41.5-17.18,11.71-11.42,17.37-25.56,18.01-40.27Z"/>
  <path class="cls-25" d="m297.26,347.14c-.64,14.71-6.3,28.85-18.01,40.27-11.51,11.22-25.54,16.84-41.5,17.18-9.65.21-18.96-1.98-27.61-6.47-10.17-5.28-18.39-12.69-24.3-22.53-5.98-9.95-8.84-20.8-8.61-32.37.21-10.14,2.85-19.68,7.99-28.5,5.1-8.74,11.8-15.84,20.47-21.19,8.68-5.35,18.12-8.08,28.14-9.13,6.99.2,13.96.57,20.71,2.65,8.72,2.68,16.49,7.12,23.26,13.19,6.12,5.49,10.82,12.13,14.19,19.57,3.69,8.15,5.32,16.83,5.26,27.34Zm-61.31-59.49c-14.26.13-27.68,5.58-38.63,16.25-11.24,10.95-16.92,24.7-16.98,40.43-.06,14.82,4.96,27.94,15.11,38.8,10.41,11.14,23.36,17.33,38.63,18.18,15.94.89,29.93-4.22,41.66-14.94,12.6-11.51,18.68-26.11,18.38-43.12-.25-14.24-5.35-26.83-15.07-37.24-11.27-12.07-25.31-18.26-43.11-18.37Z"/>
  <path class="cls-16" d="m235.95,287.64c17.8.11,31.84,6.3,43.11,18.37,9.72,10.4,14.82,23,15.07,37.24.3,17.01-5.78,31.61-18.38,43.12-11.73,10.72-25.72,15.83-41.66,14.94-15.27-.86-28.22-7.04-38.63-18.18-10.15-10.87-15.17-23.99-15.11-38.8.06-15.73,5.74-29.48,16.98-40.43,10.95-10.66,24.36-16.12,38.63-16.25Zm-53.76,55.18c.12,16.68,5.44,29.92,16.21,40.67,10.63,10.6,23.81,16.01,38.8,16.07,11.1.04,21.55-3.06,30.78-9.46,7.1-4.92,13.02-11.01,17.22-18.62,4.3-7.79,6.76-16.15,7.01-25.07.33-11.96-2.75-23.05-9.52-32.9-5.74-8.35-13.25-14.73-22.59-18.97-6.81-3.1-13.96-4.4-21.29-5.12-6.51.35-12.98.84-19.22,3.06-5.49,1.96-10.57,4.61-15.27,8.02-1.2.87-2.37,1.82-3.47,2.82-4.42,4.06-8.31,8.59-11.32,13.8-3.23,5.58-5.36,11.62-6.54,17.94-.56,3.01-.63,6.11-.79,7.77Z"/>
  <path class="cls-23" d="m182.19,342.82c.16-1.67.22-4.77.79-7.77,1.19-6.32,3.31-12.35,6.54-17.94,3.01-5.21,6.9-9.73,11.32-13.8,1.1-1.01,2.26-1.95,3.47-2.82,4.7-3.41,9.78-6.06,15.27-8.02,6.24-2.22,12.71-2.71,19.22-3.06,7.33.72,14.48,2.02,21.29,5.12,9.34,4.25,16.85,10.62,22.59,18.97,6.78,9.85,9.86,20.94,9.52,32.9-.25,8.92-2.71,17.28-7.01,25.07-4.2,7.61-10.12,13.7-17.22,18.62-9.23,6.41-19.68,9.51-30.78,9.46-14.99-.06-28.17-5.46-38.8-16.07-10.77-10.74-16.09-23.98-16.21-40.67Zm55.18,54.3c3.41.17,6.85-.43,10.29-1.05,3.48-.63,6.81-1.7,10.08-3.13,3.23-1.41,6.28-3.07,9.21-4.98,2.99-1.95,5.53-4.43,8.06-6.92,2.51-2.47,4.53-5.3,6.52-8.19,2.02-2.95,3.46-6.17,4.81-9.44,1.33-3.24,2.09-6.65,2.83-10.07.75-3.48.32-7.03.81-10.52-.98-13.93-5.85-26.23-15.99-35.99-9.65-9.29-21.34-14.39-34.81-14.86-11.68-.41-22.4,2.75-32.02,9.46-7.7,5.37-13.51,12.36-17.61,20.78-3.42,7.03-4.97,14.54-4.99,22.28-.02,9.84,2.51,19.07,7.76,27.46,5.77,9.24,13.6,16.18,23.54,20.63,6.79,3.04,13.92,4.68,21.52,4.54Z"/>
  <path class="cls-2" d="m237.37,397.12c-7.6.15-14.73-1.49-21.52-4.54-9.94-4.45-17.76-11.4-23.54-20.63-5.25-8.4-7.78-17.63-7.76-27.46.02-7.74,1.57-15.26,4.99-22.28,4.1-8.42,9.91-15.41,17.61-20.78,9.62-6.71,20.34-9.87,32.02-9.46,13.47.48,25.15,5.57,34.81,14.86,10.14,9.76,15.01,22.06,15.99,35.99-.49,3.49-.07,7.03-.81,10.52-.73,3.42-1.49,6.83-2.83,10.07-1.35,3.27-2.78,6.5-4.81,9.44-1.98,2.89-4,5.71-6.52,8.19-2.54,2.49-5.07,4.97-8.06,6.92-2.93,1.91-5.98,3.57-9.21,4.98-3.27,1.42-6.6,2.5-10.08,3.13-3.43.62-6.88,1.22-10.29,1.05Zm-50.4-55.18c.05,16.24,4.85,28.33,14.75,38.15,10.29,10.21,22.91,15.18,37.39,14.67,12.4-.44,23.43-4.88,32.45-13.49,9.81-9.37,15.26-20.93,15.86-34.58.65-14.89-4.51-27.65-15.02-38.06-9.85-9.76-22.02-14.52-35.83-14.38-13.6.14-25.41,5.21-35,14.86-9.59,9.65-14.36,21.46-14.6,32.82Z"/>
  <path class="cls-22" d="m186.97,341.94c.24-11.36,5.02-23.18,14.6-32.82,9.59-9.65,21.4-14.72,35-14.86,13.81-.14,25.99,4.62,35.83,14.38,10.51,10.41,15.67,23.17,15.02,38.06-.6,13.65-6.04,25.22-15.86,34.58-9.02,8.61-20.05,13.05-32.45,13.49-14.48.51-27.1-4.45-37.39-14.67-9.9-9.83-14.7-21.91-14.75-38.15Zm96.53,4.11c-.03-14.31-5.08-25.63-12.84-33.51-8.8-8.93-19.55-13.88-32.28-14.15-13.64-.29-25.26,4.6-34.64,14.25-8.33,8.57-12.67,19.19-12.72,31.22-.07,13.92,5.05,25.76,15.45,35.12,8.53,7.68,18.73,11.53,30.13,11.8,8.21.19,16.05-1.83,23.25-5.89,7.24-4.07,13.04-9.68,17.24-16.87,4.17-7.14,6.18-14.9,6.42-21.96Z"/>
  <path class="cls-4" d="m283.5,346.06c-.24,7.06-2.25,14.82-6.42,21.96-4.2,7.19-10,12.79-17.24,16.87-7.2,4.05-15.03,6.08-23.25,5.89-11.4-.27-21.59-4.12-30.13-11.8-10.4-9.36-15.51-21.2-15.45-35.12.06-12.02,4.39-22.64,12.72-31.22,9.37-9.64,21-14.54,34.64-14.25,12.73.27,23.48,5.22,32.28,14.15,7.76,7.88,12.81,19.2,12.84,33.51Zm-46.29-43.88c-2.22.24-4.44.42-6.65.75-2.25.34-4.54.56-6.67,1.43-2.07.85-4.08,1.87-6.15,2.72-2.15.88-3.93,2.35-5.78,3.66-1.81,1.29-3.33,2.99-5.03,4.44-1.77,1.51-3,3.45-4.32,5.3-1.29,1.82-2.43,3.76-3.45,5.75-1.04,2.03-1.93,4.14-2.42,6.4-.47,2.17-1.14,4.27-1.36,6.53-.22,2.25.07,4.54-.48,6.76.66,10.39,4.2,19.6,11.37,27.26,8,8.55,17.91,13.12,29.6,13.5,12.72.41,23.52-4.19,32.29-13.35,7.61-7.94,11.17-17.69,11.32-28.52.16-11.75-4.14-22.06-12.48-30.27-8.15-8.02-18.16-12.24-29.79-12.37Z"/>
  <path class="cls-7" d="m237.21,302.18c11.63.12,21.64,4.35,29.79,12.37,8.34,8.21,12.64,18.52,12.48,30.27-.15,10.83-3.71,20.58-11.32,28.52-8.77,9.16-19.57,13.77-32.29,13.35-11.69-.38-21.59-4.95-29.6-13.5-7.17-7.66-10.71-16.86-11.37-27.26.54-2.22.26-4.51.48-6.76.22-2.26.89-4.36,1.36-6.53.49-2.26,1.38-4.37,2.42-6.4,1.02-1.99,2.16-3.93,3.45-5.75,1.32-1.85,2.55-3.79,4.32-5.3,1.7-1.46,3.22-3.15,5.03-4.44,1.85-1.31,3.63-2.78,5.78-3.66,2.07-.85,4.08-1.87,6.15-2.72,2.13-.87,4.42-1.09,6.67-1.43,2.2-.33,4.43-.51,6.65-.75Zm-36.47,42.84c.19,5.27,1.37,10.68,3.85,15.77,1.94,3.98,4.69,7.36,7.85,10.45,3.27,3.2,7.16,5.37,11.31,7.11,4.97,2.08,10.23,2.54,15.54,2.73,7.99-.91,15.44-3.34,21.54-8.74,9.4-8.33,13.97-18.97,12.67-31.44-1.75-16.85-14.48-31.53-35-32.83-10.03.06-19.01,2.97-26.31,10.07-7.43,7.24-11.31,16.07-11.44,26.88Z"/>
  <path class="cls-20" d="m200.75,345.02c.13-10.81,4.01-19.64,11.44-26.88,7.3-7.11,16.28-10.01,26.31-10.07,20.52,1.3,33.25,15.98,35,32.83,1.3,12.47-3.27,23.12-12.67,31.44-6.09,5.4-13.54,7.83-21.54,8.74-5.31-.18-10.57-.65-15.54-2.73-4.16-1.74-8.05-3.91-11.31-7.11-3.16-3.09-5.9-6.47-7.85-10.45-2.49-5.09-3.66-10.5-3.85-15.77Zm5.71-.8c0,1.08-.18,2.19.04,3.22.47,2.32.51,4.73,1.4,6.96.57,1.43,1.1,2.89,1.87,4.22.97,1.69,2.03,3.32,3.24,4.88,1.98,2.55,4.27,4.71,6.85,6.55,2.86,2.04,6.11,3.39,9.51,4.3,1.3.35,2.63.6,3.97.74,1.83.2,3.68.4,5.5.32,1.8-.08,3.6-.43,5.36-.82,3.22-.7,6.29-1.88,9.05-3.66,3.62-2.34,6.95-5.05,9.24-8.83.12-.2.32-.34.45-.54.54-.82,1.17-1.59,1.57-2.47,1.06-2.34,2.07-4.71,2.68-7.2.39-1.62.69-3.28.81-4.94.14-1.85.03-3.71.03-5.57,0-.23.02-.48-.04-.7-.9-3.6-1.62-7.23-3.46-10.57-2.56-4.65-5.96-8.47-10.36-11.37-2.93-1.93-6.08-3.46-9.56-4.19-1-.21-1.99-.47-3.01-.61-1.2-.17-2.41-.32-3.61-.32-1.46,0-2.93.12-4.39.27-.97.09-1.96.21-2.87.51-1.67.55-3.51.6-5.02,1.64-.04.03-.09.04-.13.05-2.27.54-4.06,2.03-6.03,3.14-.8.45-1.55,1.03-2.23,1.66-1.09,1-2.2,2.01-3.14,3.16-1.27,1.54-2.55,3.12-3.53,4.85-2.67,4.74-4.42,9.78-4.19,15.33Z"/>
  <path class="cls-27" d="m206.46,344.22c-.22-5.55,1.52-10.59,4.19-15.33.98-1.73,2.26-3.31,3.53-4.85.94-1.14,2.04-2.15,3.14-3.16.68-.62,1.43-1.21,2.23-1.66,1.97-1.11,3.76-2.61,6.03-3.14.05-.01.09-.02.13-.05,1.51-1.04,3.35-1.08,5.02-1.64.91-.3,1.91-.41,2.87-.51,1.46-.14,2.93-.27,4.39-.27,1.2,0,2.42.15,3.61.32,1.01.14,2,.4,3.01.61,3.48.73,6.63,2.26,9.56,4.19,4.4,2.9,7.79,6.72,10.36,11.37,1.84,3.34,2.56,6.97,3.46,10.57.06.22.04.47.04.7,0,1.86.11,3.72-.03,5.57-.12,1.66-.42,3.32-.81,4.94-.61,2.5-1.62,4.87-2.68,7.2-.4.88-1.03,1.65-1.57,2.47-.13.19-.33.34-.45.54-2.29,3.77-5.61,6.49-9.24,8.83-2.76,1.78-5.83,2.96-9.05,3.66-1.77.38-3.57.73-5.36.82-1.83.08-3.68-.12-5.5-.32-1.33-.14-2.67-.4-3.97-.74-3.4-.91-6.64-2.26-9.51-4.3-2.58-1.84-4.87-4-6.85-6.55-1.21-1.56-2.27-3.19-3.24-4.88-.76-1.33-1.29-2.79-1.87-4.22-.9-2.23-.93-4.64-1.4-6.96-.21-1.03-.04-2.15-.04-3.22Zm31.12,25.18c1.11-.13,2.21-.36,3.32-.37,1.77-.02,3.35-.75,4.97-1.24,1.5-.45,2.88-1.32,4.26-2.09,3.48-1.92,6.18-4.69,8.18-8.07,1.15-1.95,2.08-4.03,2.76-6.25.71-2.32.63-4.7,1.03-7.03.05-.3-.09-.64-.13-.96-.04-.27-.17-.61-.07-.81.43-.87.05-1.68-.19-2.44-.51-1.59-.75-3.24-1.42-4.81-.81-1.89-1.93-3.58-2.89-5.36-.69-1.27-1.95-2.24-2.97-3.33-.38-.41-.75-.83-1.2-1.16-1.92-1.4-3.9-2.7-6.11-3.65-1.88-.82-3.8-1.5-5.83-1.76-1.27-.16-2.56-.19-3.84-.29-.64-.05-1.31-.26-1.92-.16-1.79.3-3.58.63-5.31,1.12-1.29.36-2.53.94-3.74,1.54-1.58.78-3.26,1.5-4.62,2.58-1.56,1.24-2.98,2.72-4.16,4.32-1.29,1.74-2.31,3.66-3.26,5.64-1.43,2.99-1.85,6.13-2.06,9.33-.08,1.2.1,2.42.27,3.61.18,1.28.3,2.61.75,3.81.74,1.98,1.69,3.89,2.59,5.81.32.67.65,1.4,1.18,1.89,1.91,1.77,3.32,4,5.59,5.47,2.42,1.58,4.99,2.72,7.68,3.64,2.3.78,4.71.96,7.15,1.01Z"/>
  <path class="cls-18" d="m237.58,369.39c-2.44-.05-4.85-.23-7.15-1.01-2.69-.91-5.26-2.06-7.68-3.64-2.26-1.47-3.68-3.7-5.59-5.47-.53-.49-.86-1.22-1.18-1.89-.91-1.92-1.86-3.82-2.59-5.81-.44-1.2-.57-2.53-.75-3.81-.16-1.2-.34-2.42-.27-3.61.21-3.2.63-6.34,2.06-9.33.95-1.98,1.98-3.9,3.26-5.64,1.18-1.6,2.61-3.09,4.16-4.32,1.37-1.08,3.04-1.8,4.62-2.58,1.21-.6,2.45-1.17,3.74-1.54,1.74-.49,3.53-.82,5.31-1.12.61-.1,1.28.11,1.92.16,1.28.1,2.57.12,3.84.29,2.04.26,3.95.95,5.83,1.76,2.2.95,4.18,2.25,6.11,3.65.44.32.82.75,1.2,1.16,1.02,1.09,2.29,2.05,2.97,3.33.96,1.78,2.08,3.47,2.89,5.36.67,1.57.91,3.22,1.42,4.81.24.77.62,1.57.19,2.44-.1.21.03.54.07.81.04.32.18.66.13.96-.4,2.33-.32,4.7-1.03,7.03-.68,2.22-1.61,4.3-2.76,6.25-2,3.38-4.7,6.15-8.18,8.07-1.39.77-2.77,1.63-4.26,2.09-1.62.49-3.2,1.22-4.97,1.24-1.11,0-2.22.24-3.32.37Zm.08-9.7c1.51.16,2.9-.23,4.33-.81,1.38-.56,2.81-.94,3.92-2.01.13-.12.35-.15.49-.26.74-.63,1.57-1.18,2.18-1.92,1.38-1.64,2.55-3.42,3.23-5.5.23-.72.56-1.31.29-2.13-.17-.51.09-1.18.18-1.77.07-.5.34-1.04.24-1.49-.52-2.15-.97-4.34-1.78-6.39-.5-1.26-1.44-2.44-2.44-3.37-1.48-1.38-2.95-2.79-5-3.49-2.14-.74-4.23-1.44-6.53-1.21-1.11.11-2.23.17-3.34.3-.36.04-.7.23-1.05.37-1.48.6-2.74,1.54-4.06,2.41-1.97,1.3-3.55,2.96-4.52,5.06-1.39,3.02-2.1,6.22-1.63,9.61.26,1.9,1.01,3.63,1.92,5.2.87,1.49,2.27,2.7,3.52,3.93.75.74,1.59,1.58,2.55,1.91,2.41.82,4.83,1.82,7.49,1.54Z"/>
  <path class="cls-11" d="m237.65,359.69c-2.67.28-5.08-.73-7.49-1.54-.96-.32-1.8-1.16-2.55-1.91-1.26-1.24-2.65-2.44-3.52-3.93-.91-1.57-1.66-3.31-1.92-5.2-.47-3.39.24-6.59,1.63-9.61.96-2.09,2.54-3.75,4.52-5.06,1.32-.87,2.59-1.81,4.06-2.41.34-.14.69-.33,1.05-.37,1.11-.13,2.22-.19,3.34-.3,2.3-.23,4.38.47,6.53,1.21,2.05.7,3.52,2.11,5,3.49,1,.93,1.94,2.11,2.44,3.37.81,2.05,1.26,4.24,1.78,6.39.11.45-.16.99-.24,1.49-.09.59-.35,1.25-.18,1.77.27.83-.05,1.42-.29,2.13-.68,2.08-1.85,3.86-3.23,5.5-.61.73-1.44,1.29-2.18,1.92-.14.12-.36.14-.49.26-1.11,1.07-2.54,1.45-3.92,2.01-1.43.58-2.82.97-4.33.81Z"/>
</svg>