<svg version="1.1" xmlns="http://www.w3.org/2000/svg" xmlns:xlink="http://www.w3.org/1999/xlink" width="172" height="172" viewBox="0,0,172,172"><g transform="translate(-154,-94)"><g data-paper-data="{&quot;isPaintingLayer&quot;:true}" fill="#ffffff" fill-rule="nonzero" stroke="none" stroke-width="1" stroke-linecap="butt" stroke-linejoin="miter" stroke-miterlimit="10" stroke-dasharray="" stroke-dashoffset="0" style="mix-blend-mode: normal"><path d="M326,145.23973v69.52055c0,28.2537 -22.98602,51.23973 -51.23973,51.23973h-69.52055c-28.2537,0 -51.23973,-22.98602 -51.23973,-51.23973v-69.52055c0,-28.2537 22.98602,-51.23973 51.23973,-51.23973h69.52055c28.25339,0 51.23942,22.98602 51.23973,51.23973zM308.69681,214.76027v-69.52055c0,-18.74279 -15.19406,-33.93653 -33.93653,-33.93653h-69.52055c-18.74247,0 -33.93653,15.19375 -33.93653,33.93653v69.52055c0,18.74247 15.19406,33.93653 33.93653,33.93653h69.52055c18.74247,0 33.93653,-15.19406 33.93653,-33.93653z"/><path d="M284.48532,179.99969c0,24.52925 -19.95608,44.48532 -44.48532,44.48532c-24.52925,0 -44.48532,-19.95639 -44.48532,-44.48532c0,-24.52893 19.95608,-44.48501 44.48532,-44.48501c24.52925,0 44.48532,19.95576 44.48532,44.48501zM267.18213,180c0,-15.01239 -12.16973,-27.18213 -27.18213,-27.18213c-15.01208,0 -27.18213,12.16973 -27.18213,27.18213c0,15.01239 12.16973,27.18213 27.18213,27.18213c15.01208,0 27.18213,-12.17004 27.18213,-27.18213z"/><path d="M273.91094,135.84929c0,-5.88696 4.77232,-10.65928 10.65928,-10.65928c5.88696,0 10.65928,4.77232 10.65928,10.65928c0,5.88696 -4.77232,10.65928 -10.65928,10.65928c-5.88696,0 -10.65928,-4.77232 -10.65928,-10.65928z"/></g></g></svg>