<svg version="1.1" xmlns="http://www.w3.org/2000/svg" xmlns:xlink="http://www.w3.org/1999/xlink" width="347.93143" height="347.93143" viewBox="0,0,347.93143,347.93143"><g transform="translate(-66.03429,-6.03429)"><g data-paper-data="{&quot;isPaintingLayer&quot;:true}" fill-rule="nonzero" stroke="#ffffff" stroke-width="30" stroke-linecap="butt" stroke-linejoin="miter" stroke-miterlimit="10" stroke-dasharray="" stroke-dashoffset="0" style="mix-blend-mode: normal"><path d="M81.03429,180c0,-87.79434 71.17137,-158.96571 158.96571,-158.96571c87.79434,0 158.96571,71.17137 158.96571,158.96571c0,87.79434 -71.17137,158.96571 -158.96571,158.96571c-87.79434,0 -158.96571,-71.17137 -158.96571,-158.96571z" fill="none"/><path d="M199.65643,134.23714c0,-22.28114 18.06243,-40.34357 40.34357,-40.34357c22.28114,0 40.34357,18.06243 40.34357,40.34357c0,22.28114 -18.06243,40.34357 -40.34357,40.34357c-22.28114,0 -40.34357,-18.06243 -40.34357,-40.34357z" fill="#ffffff"/><path d="M338.95214,277.60949c0,33.88464 -44.30238,61.35357 -98.95214,61.35357c-54.64976,0 -98.95214,-27.46893 -98.95214,-61.35357c0,-33.88464 44.30238,-61.35357 98.95214,-61.35357c54.64976,0 98.95214,27.46893 98.95214,61.35357z" fill="#ffffff"/></g></g></svg>